<?xml version="1.0" encoding="UTF-8" standalone="no"?><svg xmlns="http://www.w3.org/2000/svg" xmlns:xlink="http://www.w3.org/1999/xlink" clip-rule="evenodd" stroke-miterlimit="10" viewBox="0 0 1024 768"><desc>SVG generated by Keynote</desc><defs></defs><g transform="matrix(1.00, 0.00, -0.00, -1.00, 0.0, 768.0)"><g><clipPath id="clip0x600000aaf360"><path d="M 0.0 768.0 L 1024.0 768.0 L 1024.0 0.0 L 0.0 0.0 Z M 0.0 768.0 "></path></clipPath><g clip-path="url(#clip0x600000aaf360)"><image xlink:href="../../16B8362E-6469-47BC-976D-7D236EA9E3CB/assets/D5FCF16AA1E44D27BB32344CD7759940.jpeg" width="2048.00" height="1536.00" transform="matrix(0.50, 0.00, -0.00, -0.50, 0.0, 768.0)"></image></g></g><g opacity="0.90"><image xlink:href="97D471FB2511F7C22CA77D6CCF6F0512.png" width="313.00" height="78.00" transform="matrix(1.00, 0.00, -0.00, -1.00, 360.0, 681.0)"></image><g><clipPath id="clip0x608000aa4e60"><path d="M 62.0 577.0 L 962.0 577.0 L 962.0 727.0 L 62.0 727.0 Z M 62.0 577.0 "></path></clipPath><g clip-path="url(#clip0x608000aa4e60)"><text xml:space="preserve" font-family="Cochin,Cochin" font-size="74.0" fill="#515151" transform="matrix(1.00, 0.00, -0.00, -1.00, 357.2, 627.5)">R</text><text xml:space="preserve" font-family="Cochin,Cochin" font-size="74.0" fill="#515151" transform="matrix(1.00, 0.00, -0.00, -1.00, 410.6, 627.5)">h</text><text xml:space="preserve" font-family="Cochin,Cochin" font-size="74.0" fill="#515151" transform="matrix(1.00, 0.00, -0.00, -1.00, 450.3, 627.5)">a</text><text xml:space="preserve" font-family="Cochin,Cochin" font-size="74.0" fill="#515151" transform="matrix(1.00, 0.00, -0.00, -1.00, 484.6, 627.5)">p</text><text xml:space="preserve" font-family="Cochin,Cochin" font-size="74.0" fill="#515151" transform="matrix(1.00, 0.00, -0.00, -1.00, 524.3, 627.5)">s</text><text xml:space="preserve" font-family="Cochin,Cochin" font-size="74.0" fill="#515151" transform="matrix(1.00, 0.00, -0.00, -1.00, 553.1, 627.5)">o</text><text xml:space="preserve" font-family="Cochin,Cochin" font-size="74.0" fill="#515151" transform="matrix(1.00, 0.00, -0.00, -1.00, 590.1, 627.5)">d</text><text xml:space="preserve" font-family="Cochin,Cochin" font-size="74.0" fill="#515151" transform="matrix(1.00, 0.00, -0.00, -1.00, 629.8, 627.5)">y</text></g></g></g><image xlink:href="F5D46766887C8E678AABCB41BE95C7A9.png" width="1024.00" height="768.00" transform="matrix(0.76, 0.00, -0.00, -0.76, 125.0, 598.0)"></image></g></svg>