<?xml version="1.0" encoding="UTF-8" standalone="no"?><svg xmlns="http://www.w3.org/2000/svg" xmlns:xlink="http://www.w3.org/1999/xlink" clip-rule="evenodd" stroke-miterlimit="10" viewBox="0 0 1024 768"><desc>SVG generated by Keynote</desc><defs></defs><g transform="matrix(1.00, 0.00, -0.00, -1.00, 0.0, 768.0)"><g><clipPath id="clip0x608000ab7940"><path d="M 0.0 768.0 L 1024.0 768.0 L 1024.0 0.0 L 0.0 0.0 Z M 0.0 768.0 "></path></clipPath><g clip-path="url(#clip0x608000ab7940)"><image xlink:href="../../16B8362E-6469-47BC-976D-7D236EA9E3CB/assets/D5FCF16AA1E44D27BB32344CD7759940.jpeg" width="2048.00" height="1536.00" transform="matrix(0.50, 0.00, -0.00, -0.50, 0.0, 768.0)"></image></g></g><g opacity="0.90"><image xlink:href="../../85712E1E-BFFD-4DF1-9C72-4B40EED209B4/assets/0A7B7F8CB68F97D2499EBA255020DAF7.png" width="291.00" height="78.00" transform="matrix(1.00, 0.00, -0.00, -1.00, 368.0, 681.0)"></image><g><clipPath id="clip0x600000ca2040"><path d="M 62.0 577.0 L 962.0 577.0 L 962.0 727.0 L 62.0 727.0 Z M 62.0 577.0 "></path></clipPath><g clip-path="url(#clip0x600000ca2040)"><text xml:space="preserve" font-family="Cochin,Cochin" font-size="74.0" fill="#515151" transform="matrix(1.00, 0.00, -0.00, -1.00, 368.8, 627.5)">l</text><text xml:space="preserve" font-family="Cochin,Cochin" font-size="74.0" fill="#515151" transform="matrix(1.00, 0.00, -0.00, -1.00, 388.0, 627.5)">i</text><text xml:space="preserve" font-family="Cochin,Cochin" font-size="74.0" fill="#515151" transform="matrix(1.00, 0.00, -0.00, -1.00, 407.1, 627.5)">b</text><text xml:space="preserve" font-family="Cochin,Cochin" font-size="74.0" fill="#515151" transform="matrix(1.00, 0.00, -0.00, -1.00, 446.9, 627.5)">s</text><text xml:space="preserve" font-family="Cochin,Cochin" font-size="74.0" fill="#515151" transform="matrix(1.00, 0.00, -0.00, -1.00, 475.7, 627.5)">y</text><text xml:space="preserve" font-family="Cochin,Cochin" font-size="74.0" fill="#515151" transform="matrix(1.00, 0.00, -0.00, -1.00, 512.7, 627.5)">s</text><text xml:space="preserve" font-family="Cochin,Cochin" font-size="74.0" fill="#515151" transform="matrix(1.00, 0.00, -0.00, -1.00, 541.5, 627.5)">t</text><text xml:space="preserve" font-family="Cochin,Cochin" font-size="74.0" fill="#515151" transform="matrix(1.00, 0.00, -0.00, -1.00, 564.8, 627.5)">e</text><text xml:space="preserve" font-family="Cochin,Cochin" font-size="74.0" fill="#515151" transform="matrix(1.00, 0.00, -0.00, -1.00, 597.6, 627.5)">m</text></g></g></g><g opacity="0.90"><g><clipPath id="clip0x600000ca2820"><path d="M 62.0 98.0 L 962.0 98.0 L 962.0 548.0 L 62.0 548.0 Z M 62.0 98.0 "></path></clipPath><g clip-path="url(#clip0x600000ca2820)"><text xml:space="preserve" font-family="Cochin,Cochin" font-size="30.0" fill="#515050" transform="matrix(1.00, 0.00, -0.00, -1.00, 66.0, 442.0)">•</text><text xml:space="preserve" font-family="Cochin,Cochin" font-size="40.0" fill="#515151" transform="matrix(1.00, 0.00, -0.00, -1.00, 100.0, 439.0)">X</text><text xml:space="preserve" font-family="Cochin,Cochin" font-size="40.0" fill="#515151" transform="matrix(1.00, 0.00, -0.00, -1.00, 129.6, 439.0)">N</text><text xml:space="preserve" font-family="Cochin,Cochin" font-size="40.0" fill="#515151" transform="matrix(1.00, 0.00, -0.00, -1.00, 162.2, 439.0)">U</text><text xml:space="preserve" font-family="Cochin,Cochin" font-size="40.0" fill="#515151" transform="matrix(1.00, 0.00, -0.00, -1.00, 194.1, 439.0)"> </text><text xml:space="preserve" font-family="Cochin,Cochin" font-size="40.0" fill="#515151" transform="matrix(1.00, 0.00, -0.00, -1.00, 204.1, 439.0)">-</text><text xml:space="preserve" font-family="Cochin,Cochin" font-size="40.0" fill="#515151" transform="matrix(1.00, 0.00, -0.00, -1.00, 217.4, 439.0)">&gt;</text><text xml:space="preserve" font-family="Cochin,Cochin" font-size="40.0" fill="#515151" transform="matrix(1.00, 0.00, -0.00, -1.00, 237.4, 439.0)"> </text><text xml:space="preserve" font-family="Cochin,Cochin" font-size="40.0" fill="#515151" transform="matrix(1.00, 0.00, -0.00, -1.00, 247.4, 439.0)">l</text><text xml:space="preserve" font-family="Cochin,Cochin" font-size="40.0" fill="#515151" transform="matrix(1.00, 0.00, -0.00, -1.00, 257.8, 439.0)">i</text><text xml:space="preserve" font-family="Cochin,Cochin" font-size="40.0" fill="#515151" transform="matrix(1.00, 0.00, -0.00, -1.00, 268.1, 439.0)">b</text><text xml:space="preserve" font-family="Cochin,Cochin" font-size="40.0" fill="#515151" transform="matrix(1.00, 0.00, -0.00, -1.00, 289.6, 439.0)">k</text><text xml:space="preserve" font-family="Cochin,Cochin" font-size="40.0" fill="#515151" transform="matrix(1.00, 0.00, -0.00, -1.00, 311.1, 439.0)">e</text><text xml:space="preserve" font-family="Cochin,Cochin" font-size="40.0" fill="#515151" transform="matrix(1.00, 0.00, -0.00, -1.00, 328.8, 439.0)">r</text><text xml:space="preserve" font-family="Cochin,Cochin" font-size="40.0" fill="#515151" transform="matrix(1.00, 0.00, -0.00, -1.00, 344.4, 439.0)">n</text><text xml:space="preserve" font-family="Cochin,Cochin" font-size="40.0" fill="#515151" transform="matrix(1.00, 0.00, -0.00, -1.00, 365.9, 439.0)"> </text><text xml:space="preserve" font-family="Cochin,Cochin" font-size="40.0" fill="#515151" transform="matrix(1.00, 0.00, -0.00, -1.00, 375.9, 439.0)">-</text><text xml:space="preserve" font-family="Cochin,Cochin" font-size="40.0" fill="#515151" transform="matrix(1.00, 0.00, -0.00, -1.00, 389.2, 439.0)">&gt;</text><text xml:space="preserve" font-family="Cochin,Cochin" font-size="40.0" fill="#515151" transform="matrix(1.00, 0.00, -0.00, -1.00, 409.2, 439.0)"> </text><text xml:space="preserve" font-family="Cochin,Cochin" font-size="40.0" fill="#515151" transform="matrix(1.00, 0.00, -0.00, -1.00, 419.2, 439.0)">l</text><text xml:space="preserve" font-family="Cochin,Cochin" font-size="40.0" fill="#515151" transform="matrix(1.00, 0.00, -0.00, -1.00, 429.6, 439.0)">i</text><text xml:space="preserve" font-family="Cochin,Cochin" font-size="40.0" fill="#515151" transform="matrix(1.00, 0.00, -0.00, -1.00, 439.9, 439.0)">b</text><text xml:space="preserve" font-family="Cochin,Cochin" font-size="40.0" fill="#515151" transform="matrix(1.00, 0.00, -0.00, -1.00, 461.4, 439.0)">s</text><text xml:space="preserve" font-family="Cochin,Cochin" font-size="40.0" fill="#515151" transform="matrix(1.00, 0.00, -0.00, -1.00, 477.0, 439.0)">y</text><text xml:space="preserve" font-family="Cochin,Cochin" font-size="40.0" fill="#515151" transform="matrix(1.00, 0.00, -0.00, -1.00, 497.0, 439.0)">s</text><text xml:space="preserve" font-family="Cochin,Cochin" font-size="40.0" fill="#515151" transform="matrix(1.00, 0.00, -0.00, -1.00, 512.5, 439.0)">t</text><text xml:space="preserve" font-family="Cochin,Cochin" font-size="40.0" fill="#515151" transform="matrix(1.00, 0.00, -0.00, -1.00, 525.1, 439.0)">e</text><text xml:space="preserve" font-family="Cochin,Cochin" font-size="40.0" fill="#515151" transform="matrix(1.00, 0.00, -0.00, -1.00, 542.9, 439.0)">m</text><text xml:space="preserve" font-family="Cochin,Cochin" font-size="40.0" fill="#515151" transform="matrix(1.00, 0.00, -0.00, -1.00, 574.0, 439.0)"> </text><text xml:space="preserve" font-family="Cochin,Cochin" font-size="40.0" fill="#515151" transform="matrix(1.00, 0.00, -0.00, -1.00, 584.0, 439.0)">-</text><text xml:space="preserve" font-family="Cochin,Cochin" font-size="40.0" fill="#515151" transform="matrix(1.00, 0.00, -0.00, -1.00, 597.3, 439.0)">&gt;</text><text xml:space="preserve" font-family="Cochin,Cochin" font-size="40.0" fill="#515151" transform="matrix(1.00, 0.00, -0.00, -1.00, 617.3, 439.0)"> </text><text xml:space="preserve" font-family="Cochin,Cochin" font-size="40.0" fill="#515151" transform="matrix(1.00, 0.00, -0.00, -1.00, 627.3, 439.0)">l</text><text xml:space="preserve" font-family="Cochin,Cochin" font-size="40.0" fill="#515151" transform="matrix(1.00, 0.00, -0.00, -1.00, 637.7, 439.0)">i</text><text xml:space="preserve" font-family="Cochin,Cochin" font-size="40.0" fill="#515151" transform="matrix(1.00, 0.00, -0.00, -1.00, 648.0, 439.0)">b</text><text xml:space="preserve" font-family="Cochin,Cochin" font-size="40.0" fill="#515151" transform="matrix(1.00, 0.00, -0.00, -1.00, 669.5, 439.0)">c</text><text xml:space="preserve" font-family="Cochin,Cochin" font-size="30.0" fill="#515050" transform="matrix(1.00, 0.00, -0.00, -1.00, 66.0, 356.0)">•</text><text xml:space="preserve" font-family="Cochin,Cochin" font-size="40.0" fill="#515151" transform="matrix(1.00, 0.00, -0.00, -1.00, 100.0, 353.0)">C</text><text xml:space="preserve" font-family="Cochin,Cochin" font-size="40.0" fill="#515151" transform="matrix(1.00, 0.00, -0.00, -1.00, 128.2, 353.0)">o</text><text xml:space="preserve" font-family="Cochin,Cochin" font-size="40.0" fill="#515151" transform="matrix(1.00, 0.00, -0.00, -1.00, 148.2, 353.0)">m</text><text xml:space="preserve" font-family="Cochin,Cochin" font-size="40.0" fill="#515151" transform="matrix(1.00, 0.00, -0.00, -1.00, 179.3, 353.0)">p</text><text xml:space="preserve" font-family="Cochin,Cochin" font-size="40.0" fill="#515151" transform="matrix(1.00, 0.00, -0.00, -1.00, 200.8, 353.0)">a</text><text xml:space="preserve" font-family="Cochin,Cochin" font-size="40.0" fill="#515151" transform="matrix(1.00, 0.00, -0.00, -1.00, 219.3, 353.0)">t</text><text xml:space="preserve" font-family="Cochin,Cochin" font-size="40.0" fill="#515151" transform="matrix(1.00, 0.00, -0.00, -1.00, 231.9, 353.0)">i</text><text xml:space="preserve" font-family="Cochin,Cochin" font-size="40.0" fill="#515151" transform="matrix(1.00, 0.00, -0.00, -1.00, 242.2, 353.0)">b</text><text xml:space="preserve" font-family="Cochin,Cochin" font-size="40.0" fill="#515151" transform="matrix(1.00, 0.00, -0.00, -1.00, 263.7, 353.0)">i</text><text xml:space="preserve" font-family="Cochin,Cochin" font-size="40.0" fill="#515151" transform="matrix(1.00, 0.00, -0.00, -1.00, 274.1, 353.0)">l</text><text xml:space="preserve" font-family="Cochin,Cochin" font-size="40.0" fill="#515151" transform="matrix(1.00, 0.00, -0.00, -1.00, 284.4, 353.0)">i</text><text xml:space="preserve" font-family="Cochin,Cochin" font-size="40.0" fill="#515151" transform="matrix(1.00, 0.00, -0.00, -1.00, 294.8, 353.0)">t</text><text xml:space="preserve" font-family="Cochin,Cochin" font-size="40.0" fill="#515151" transform="matrix(1.00, 0.00, -0.00, -1.00, 307.4, 353.0)">y</text><text xml:space="preserve" font-family="Cochin,Cochin" font-size="40.0" fill="#515151" transform="matrix(1.00, 0.00, -0.00, -1.00, 327.4, 353.0)"> </text><text xml:space="preserve" font-family="Cochin,Cochin" font-size="40.0" fill="#515151" transform="matrix(1.00, 0.00, -0.00, -1.00, 337.4, 353.0)">a</text><text xml:space="preserve" font-family="Cochin,Cochin" font-size="40.0" fill="#515151" transform="matrix(1.00, 0.00, -0.00, -1.00, 355.9, 353.0)">c</text><text xml:space="preserve" font-family="Cochin,Cochin" font-size="40.0" fill="#515151" transform="matrix(1.00, 0.00, -0.00, -1.00, 373.7, 353.0)">r</text><text xml:space="preserve" font-family="Cochin,Cochin" font-size="40.0" fill="#515151" transform="matrix(1.00, 0.00, -0.00, -1.00, 389.2, 353.0)">o</text><text xml:space="preserve" font-family="Cochin,Cochin" font-size="40.0" fill="#515151" transform="matrix(1.00, 0.00, -0.00, -1.00, 409.2, 353.0)">s</text><text xml:space="preserve" font-family="Cochin,Cochin" font-size="40.0" fill="#515151" transform="matrix(1.00, 0.00, -0.00, -1.00, 424.8, 353.0)">s</text><text xml:space="preserve" font-family="Cochin,Cochin" font-size="40.0" fill="#515151" transform="matrix(1.00, 0.00, -0.00, -1.00, 440.4, 353.0)"> </text><text xml:space="preserve" font-family="Cochin,Cochin" font-size="40.0" fill="#515151" transform="matrix(1.00, 0.00, -0.00, -1.00, 450.4, 353.0)">c</text><text xml:space="preserve" font-family="Cochin,Cochin" font-size="40.0" fill="#515151" transform="matrix(1.00, 0.00, -0.00, -1.00, 468.1, 353.0)">h</text><text xml:space="preserve" font-family="Cochin,Cochin" font-size="40.0" fill="#515151" transform="matrix(1.00, 0.00, -0.00, -1.00, 489.6, 353.0)">a</text><text xml:space="preserve" font-family="Cochin,Cochin" font-size="40.0" fill="#515151" transform="matrix(1.00, 0.00, -0.00, -1.00, 508.1, 353.0)">n</text><text xml:space="preserve" font-family="Cochin,Cochin" font-size="40.0" fill="#515151" transform="matrix(1.00, 0.00, -0.00, -1.00, 529.6, 353.0)">g</text><text xml:space="preserve" font-family="Cochin,Cochin" font-size="40.0" fill="#515151" transform="matrix(1.00, 0.00, -0.00, -1.00, 549.6, 353.0)">i</text><text xml:space="preserve" font-family="Cochin,Cochin" font-size="40.0" fill="#515151" transform="matrix(1.00, 0.00, -0.00, -1.00, 560.0, 353.0)">n</text><text xml:space="preserve" font-family="Cochin,Cochin" font-size="40.0" fill="#515151" transform="matrix(1.00, 0.00, -0.00, -1.00, 581.4, 353.0)">g</text><text xml:space="preserve" font-family="Cochin,Cochin" font-size="40.0" fill="#515151" transform="matrix(1.00, 0.00, -0.00, -1.00, 601.4, 353.0)"> </text><text xml:space="preserve" font-family="Cochin,Cochin" font-size="40.0" fill="#515151" transform="matrix(1.00, 0.00, -0.00, -1.00, 611.4, 353.0)">v</text><text xml:space="preserve" font-family="Cochin,Cochin" font-size="40.0" fill="#515151" transform="matrix(1.00, 0.00, -0.00, -1.00, 631.4, 353.0)">e</text><text xml:space="preserve" font-family="Cochin,Cochin" font-size="40.0" fill="#515151" transform="matrix(1.00, 0.00, -0.00, -1.00, 649.2, 353.0)">r</text><text xml:space="preserve" font-family="Cochin,Cochin" font-size="40.0" fill="#515151" transform="matrix(1.00, 0.00, -0.00, -1.00, 664.8, 353.0)">s</text><text xml:space="preserve" font-family="Cochin,Cochin" font-size="40.0" fill="#515151" transform="matrix(1.00, 0.00, -0.00, -1.00, 680.3, 353.0)">i</text><text xml:space="preserve" font-family="Cochin,Cochin" font-size="40.0" fill="#515151" transform="matrix(1.00, 0.00, -0.00, -1.00, 690.7, 353.0)">o</text><text xml:space="preserve" font-family="Cochin,Cochin" font-size="40.0" fill="#515151" transform="matrix(1.00, 0.00, -0.00, -1.00, 710.7, 353.0)">n</text><text xml:space="preserve" font-family="Cochin,Cochin" font-size="40.0" fill="#515151" transform="matrix(1.00, 0.00, -0.00, -1.00, 732.2, 353.0)">s</text><text xml:space="preserve" font-family="Cochin,Cochin" font-size="30.0" fill="#515050" transform="matrix(1.00, 0.00, -0.00, -1.00, 66.0, 270.0)">•</text><text xml:space="preserve" font-family="Cochin,Cochin" font-size="40.0" fill="#515151" transform="matrix(1.00, 0.00, -0.00, -1.00, 100.0, 267.0)">F</text><text xml:space="preserve" font-family="Cochin,Cochin" font-size="40.0" fill="#515151" transform="matrix(1.00, 0.00, -0.00, -1.00, 125.2, 267.0)">i</text><text xml:space="preserve" font-family="Cochin,Cochin" font-size="40.0" fill="#515151" transform="matrix(1.00, 0.00, -0.00, -1.00, 135.6, 267.0)">x</text><text xml:space="preserve" font-family="Cochin,Cochin" font-size="40.0" fill="#515151" transform="matrix(1.00, 0.00, -0.00, -1.00, 156.3, 267.0)">e</text><text xml:space="preserve" font-family="Cochin,Cochin" font-size="40.0" fill="#515151" transform="matrix(1.00, 0.00, -0.00, -1.00, 174.1, 267.0)">s</text><text xml:space="preserve" font-family="Cochin,Cochin" font-size="40.0" fill="#515151" transform="matrix(1.00, 0.00, -0.00, -1.00, 189.6, 267.0)"> </text><text xml:space="preserve" font-family="Cochin,Cochin" font-size="40.0" fill="#515151" transform="matrix(1.00, 0.00, -0.00, -1.00, 199.6, 267.0)">l</text><text xml:space="preserve" font-family="Cochin,Cochin" font-size="40.0" fill="#515151" transform="matrix(1.00, 0.00, -0.00, -1.00, 210.0, 267.0)">a</text><text xml:space="preserve" font-family="Cochin,Cochin" font-size="40.0" fill="#515151" transform="matrix(1.00, 0.00, -0.00, -1.00, 228.5, 267.0)">c</text><text xml:space="preserve" font-family="Cochin,Cochin" font-size="40.0" fill="#515151" transform="matrix(1.00, 0.00, -0.00, -1.00, 246.3, 267.0)">k</text><text xml:space="preserve" font-family="Cochin,Cochin" font-size="40.0" fill="#515151" transform="matrix(1.00, 0.00, -0.00, -1.00, 267.8, 267.0)"> </text><text xml:space="preserve" font-family="Cochin,Cochin" font-size="40.0" fill="#515151" transform="matrix(1.00, 0.00, -0.00, -1.00, 277.8, 267.0)">o</text><text xml:space="preserve" font-family="Cochin,Cochin" font-size="40.0" fill="#515151" transform="matrix(1.00, 0.00, -0.00, -1.00, 297.8, 267.0)">f</text><text xml:space="preserve" font-family="Cochin,Cochin" font-size="40.0" fill="#515151" transform="matrix(1.00, 0.00, -0.00, -1.00, 310.4, 267.0)"> </text><text xml:space="preserve" font-family="Cochin,Cochin" font-size="40.0" fill="#515151" transform="matrix(1.00, 0.00, -0.00, -1.00, 320.4, 267.0)">s</text><text xml:space="preserve" font-family="Cochin,Cochin" font-size="40.0" fill="#515151" transform="matrix(1.00, 0.00, -0.00, -1.00, 335.9, 267.0)">t</text><text xml:space="preserve" font-family="Cochin,Cochin" font-size="40.0" fill="#515151" transform="matrix(1.00, 0.00, -0.00, -1.00, 348.5, 267.0)">a</text><text xml:space="preserve" font-family="Cochin,Cochin" font-size="40.0" fill="#515151" transform="matrix(1.00, 0.00, -0.00, -1.00, 367.0, 267.0)">b</text><text xml:space="preserve" font-family="Cochin,Cochin" font-size="40.0" fill="#515151" transform="matrix(1.00, 0.00, -0.00, -1.00, 388.5, 267.0)">l</text><text xml:space="preserve" font-family="Cochin,Cochin" font-size="40.0" fill="#515151" transform="matrix(1.00, 0.00, -0.00, -1.00, 398.9, 267.0)">e</text><text xml:space="preserve" font-family="Cochin,Cochin" font-size="40.0" fill="#515151" transform="matrix(1.00, 0.00, -0.00, -1.00, 416.6, 267.0)"> </text><text xml:space="preserve" font-family="Cochin,Cochin" font-size="40.0" fill="#515151" transform="matrix(1.00, 0.00, -0.00, -1.00, 426.6, 267.0)">k</text><text xml:space="preserve" font-family="Cochin,Cochin" font-size="40.0" fill="#515151" transform="matrix(1.00, 0.00, -0.00, -1.00, 448.1, 267.0)">e</text><text xml:space="preserve" font-family="Cochin,Cochin" font-size="40.0" fill="#515151" transform="matrix(1.00, 0.00, -0.00, -1.00, 465.9, 267.0)">r</text><text xml:space="preserve" font-family="Cochin,Cochin" font-size="40.0" fill="#515151" transform="matrix(1.00, 0.00, -0.00, -1.00, 481.4, 267.0)">n</text><text xml:space="preserve" font-family="Cochin,Cochin" font-size="40.0" fill="#515151" transform="matrix(1.00, 0.00, -0.00, -1.00, 502.9, 267.0)">e</text><text xml:space="preserve" font-family="Cochin,Cochin" font-size="40.0" fill="#515151" transform="matrix(1.00, 0.00, -0.00, -1.00, 520.7, 267.0)">l</text><text xml:space="preserve" font-family="Cochin,Cochin" font-size="40.0" fill="#515151" transform="matrix(1.00, 0.00, -0.00, -1.00, 531.0, 267.0)"> </text><text xml:space="preserve" font-family="Cochin,Cochin" font-size="40.0" fill="#515151" transform="matrix(1.00, 0.00, -0.00, -1.00, 541.0, 267.0)">A</text><text xml:space="preserve" font-family="Cochin,Cochin" font-size="40.0" fill="#515151" transform="matrix(1.00, 0.00, -0.00, -1.00, 569.2, 267.0)">B</text><text xml:space="preserve" font-family="Cochin,Cochin" font-size="40.0" fill="#515151" transform="matrix(1.00, 0.00, -0.00, -1.00, 596.6, 267.0)">I</text><text xml:space="preserve" font-family="Cochin,Cochin" font-size="30.0" fill="#515050" transform="matrix(1.00, 0.00, -0.00, -1.00, 66.0, 184.0)">•</text><text xml:space="preserve" font-family="Cochin,Cochin" font-size="40.0" fill="#515151" transform="matrix(1.00, 0.00, -0.00, -1.00, 100.0, 181.0)">R</text><text xml:space="preserve" font-family="Cochin,Cochin" font-size="40.0" fill="#515151" transform="matrix(1.00, 0.00, -0.00, -1.00, 128.9, 181.0)">o</text><text xml:space="preserve" font-family="Cochin,Cochin" font-size="40.0" fill="#515151" transform="matrix(1.00, 0.00, -0.00, -1.00, 148.9, 181.0)">s</text><text xml:space="preserve" font-family="Cochin,Cochin" font-size="40.0" fill="#515151" transform="matrix(1.00, 0.00, -0.00, -1.00, 164.4, 181.0)">e</text><text xml:space="preserve" font-family="Cochin,Cochin" font-size="40.0" fill="#515151" transform="matrix(1.00, 0.00, -0.00, -1.00, 182.2, 181.0)">t</text><text xml:space="preserve" font-family="Cochin,Cochin" font-size="40.0" fill="#515151" transform="matrix(1.00, 0.00, -0.00, -1.00, 194.8, 181.0)">t</text><text xml:space="preserve" font-family="Cochin,Cochin" font-size="40.0" fill="#515151" transform="matrix(1.00, 0.00, -0.00, -1.00, 207.4, 181.0)">a</text></g></g></g></g></svg>