<?xml version="1.0" encoding="UTF-8" standalone="no"?><svg xmlns="http://www.w3.org/2000/svg" xmlns:xlink="http://www.w3.org/1999/xlink" clip-rule="evenodd" stroke-miterlimit="10" viewBox="0 0 1024 768"><desc>SVG generated by Keynote</desc><defs></defs><g transform="matrix(1.00, 0.00, -0.00, -1.00, 0.0, 768.0)"><g><clipPath id="clip0x608000aaabc0"><path d="M 0.0 768.0 L 1024.0 768.0 L 1024.0 0.0 L 0.0 0.0 Z M 0.0 768.0 "></path></clipPath><g clip-path="url(#clip0x608000aaabc0)"><image xlink:href="../../16B8362E-6469-47BC-976D-7D236EA9E3CB/assets/D5FCF16AA1E44D27BB32344CD7759940.jpeg" width="2048.00" height="1536.00" transform="matrix(0.50, 0.00, -0.00, -0.50, 0.0, 768.0)"></image></g></g><g opacity="0.90"><image xlink:href="../../4212CE77-6CB2-44EF-8372-399AF74E3D22/assets/C1937E41A38D2FD75BBB0DC8A3976527.png" width="444.00" height="61.00" transform="matrix(1.00, 0.00, -0.00, -1.00, 291.0, 681.0)"></image><g><clipPath id="clip0x600000ab29c0"><path d="M 62.0 577.0 L 962.0 577.0 L 962.0 727.0 L 62.0 727.0 Z M 62.0 577.0 "></path></clipPath><g clip-path="url(#clip0x600000ab29c0)"><text xml:space="preserve" font-family="Cochin,Cochin" font-size="74.0" fill="#515151" transform="matrix(1.00, 0.00, -0.00, -1.00, 291.7, 627.5)">M</text><text xml:space="preserve" font-family="Cochin,Cochin" font-size="74.0" fill="#515151" transform="matrix(1.00, 0.00, -0.00, -1.00, 363.0, 627.5)">a</text><text xml:space="preserve" font-family="Cochin,Cochin" font-size="74.0" fill="#515151" transform="matrix(1.00, 0.00, -0.00, -1.00, 397.3, 627.5)">c</text><text xml:space="preserve" font-family="Cochin,Cochin" font-size="74.0" fill="#515151" transform="matrix(1.00, 0.00, -0.00, -1.00, 430.1, 627.5)">h</text><text xml:space="preserve" font-family="Cochin,Cochin" font-size="74.0" fill="#515151" transform="matrix(1.00, 0.00, -0.00, -1.00, 469.9, 627.5)"> </text><text xml:space="preserve" font-family="Cochin,Cochin" font-size="74.0" fill="#515151" transform="matrix(1.00, 0.00, -0.00, -1.00, 488.4, 627.5)">f</text><text xml:space="preserve" font-family="Cochin,Cochin" font-size="74.0" fill="#515151" transform="matrix(1.00, 0.00, -0.00, -1.00, 511.7, 627.5)">e</text><text xml:space="preserve" font-family="Cochin,Cochin" font-size="74.0" fill="#515151" transform="matrix(1.00, 0.00, -0.00, -1.00, 544.5, 627.5)">a</text><text xml:space="preserve" font-family="Cochin,Cochin" font-size="74.0" fill="#515151" transform="matrix(1.00, 0.00, -0.00, -1.00, 578.8, 627.5)">t</text><text xml:space="preserve" font-family="Cochin,Cochin" font-size="74.0" fill="#515151" transform="matrix(1.00, 0.00, -0.00, -1.00, 602.1, 627.5)">u</text><text xml:space="preserve" font-family="Cochin,Cochin" font-size="74.0" fill="#515151" transform="matrix(1.00, 0.00, -0.00, -1.00, 641.8, 627.5)">r</text><text xml:space="preserve" font-family="Cochin,Cochin" font-size="74.0" fill="#515151" transform="matrix(1.00, 0.00, -0.00, -1.00, 670.6, 627.5)">e</text><text xml:space="preserve" font-family="Cochin,Cochin" font-size="74.0" fill="#515151" transform="matrix(1.00, 0.00, -0.00, -1.00, 703.5, 627.5)">s</text></g></g></g><g opacity="0.90"><g><clipPath id="clip0x600000ab3140"><path d="M 62.0 98.0 L 962.0 98.0 L 962.0 548.0 L 62.0 548.0 Z M 62.0 98.0 "></path></clipPath><g clip-path="url(#clip0x600000ab3140)"><text xml:space="preserve" font-family="Cochin,Cochin" font-size="30.0" fill="#515050" transform="matrix(1.00, 0.00, -0.00, -1.00, 66.0, 356.0)">•</text><text xml:space="preserve" font-family="Cochin,Cochin" font-size="40.0" fill="#515151" transform="matrix(1.00, 0.00, -0.00, -1.00, 100.0, 353.0)">M</text><text xml:space="preserve" font-family="Cochin,Cochin" font-size="40.0" fill="#515151" transform="matrix(1.00, 0.00, -0.00, -1.00, 138.5, 353.0)">a</text><text xml:space="preserve" font-family="Cochin,Cochin" font-size="40.0" fill="#515151" transform="matrix(1.00, 0.00, -0.00, -1.00, 157.0, 353.0)">c</text><text xml:space="preserve" font-family="Cochin,Cochin" font-size="40.0" fill="#515151" transform="matrix(1.00, 0.00, -0.00, -1.00, 174.8, 353.0)">h</text><text xml:space="preserve" font-family="Cochin,Cochin" font-size="40.0" fill="#515151" transform="matrix(1.00, 0.00, -0.00, -1.00, 196.3, 353.0)"> </text><text xml:space="preserve" font-family="Cochin,Cochin" font-size="40.0" fill="#515151" transform="matrix(1.00, 0.00, -0.00, -1.00, 206.3, 353.0)">I</text><text xml:space="preserve" font-family="Cochin,Cochin" font-size="40.0" fill="#515151" transform="matrix(1.00, 0.00, -0.00, -1.00, 221.8, 353.0)">P</text><text xml:space="preserve" font-family="Cochin,Cochin" font-size="40.0" fill="#515151" transform="matrix(1.00, 0.00, -0.00, -1.00, 247.0, 353.0)">C</text><text xml:space="preserve" font-family="Cochin,Cochin" font-size="30.0" fill="#515050" transform="matrix(1.00, 0.00, -0.00, -1.00, 66.0, 270.0)">•</text><text xml:space="preserve" font-family="Cochin,Cochin" font-size="40.0" fill="#515151" transform="matrix(1.00, 0.00, -0.00, -1.00, 100.0, 267.0)">V</text><text xml:space="preserve" font-family="Cochin,Cochin" font-size="40.0" fill="#515151" transform="matrix(1.00, 0.00, -0.00, -1.00, 126.7, 267.0)">i</text><text xml:space="preserve" font-family="Cochin,Cochin" font-size="40.0" fill="#515151" transform="matrix(1.00, 0.00, -0.00, -1.00, 137.0, 267.0)">r</text><text xml:space="preserve" font-family="Cochin,Cochin" font-size="40.0" fill="#515151" transform="matrix(1.00, 0.00, -0.00, -1.00, 152.6, 267.0)">t</text><text xml:space="preserve" font-family="Cochin,Cochin" font-size="40.0" fill="#515151" transform="matrix(1.00, 0.00, -0.00, -1.00, 165.2, 267.0)">u</text><text xml:space="preserve" font-family="Cochin,Cochin" font-size="40.0" fill="#515151" transform="matrix(1.00, 0.00, -0.00, -1.00, 186.7, 267.0)">a</text><text xml:space="preserve" font-family="Cochin,Cochin" font-size="40.0" fill="#515151" transform="matrix(1.00, 0.00, -0.00, -1.00, 205.2, 267.0)">l</text><text xml:space="preserve" font-family="Cochin,Cochin" font-size="40.0" fill="#515151" transform="matrix(1.00, 0.00, -0.00, -1.00, 215.6, 267.0)"> </text><text xml:space="preserve" font-family="Cochin,Cochin" font-size="40.0" fill="#515151" transform="matrix(1.00, 0.00, -0.00, -1.00, 225.6, 267.0)">m</text><text xml:space="preserve" font-family="Cochin,Cochin" font-size="40.0" fill="#515151" transform="matrix(1.00, 0.00, -0.00, -1.00, 256.7, 267.0)">e</text><text xml:space="preserve" font-family="Cochin,Cochin" font-size="40.0" fill="#515151" transform="matrix(1.00, 0.00, -0.00, -1.00, 274.4, 267.0)">m</text><text xml:space="preserve" font-family="Cochin,Cochin" font-size="40.0" fill="#515151" transform="matrix(1.00, 0.00, -0.00, -1.00, 305.6, 267.0)">o</text><text xml:space="preserve" font-family="Cochin,Cochin" font-size="40.0" fill="#515151" transform="matrix(1.00, 0.00, -0.00, -1.00, 325.6, 267.0)">r</text><text xml:space="preserve" font-family="Cochin,Cochin" font-size="40.0" fill="#515151" transform="matrix(1.00, 0.00, -0.00, -1.00, 341.1, 267.0)">y</text><text xml:space="preserve" font-family="Cochin,Cochin" font-size="40.0" fill="#515151" transform="matrix(1.00, 0.00, -0.00, -1.00, 361.1, 267.0)"> </text><text xml:space="preserve" font-family="Cochin,Cochin" font-size="40.0" fill="#515151" transform="matrix(1.00, 0.00, -0.00, -1.00, 371.1, 267.0)">m</text><text xml:space="preserve" font-family="Cochin,Cochin" font-size="40.0" fill="#515151" transform="matrix(1.00, 0.00, -0.00, -1.00, 402.2, 267.0)">a</text><text xml:space="preserve" font-family="Cochin,Cochin" font-size="40.0" fill="#515151" transform="matrix(1.00, 0.00, -0.00, -1.00, 420.8, 267.0)">n</text><text xml:space="preserve" font-family="Cochin,Cochin" font-size="40.0" fill="#515151" transform="matrix(1.00, 0.00, -0.00, -1.00, 442.2, 267.0)">a</text><text xml:space="preserve" font-family="Cochin,Cochin" font-size="40.0" fill="#515151" transform="matrix(1.00, 0.00, -0.00, -1.00, 460.8, 267.0)">g</text><text xml:space="preserve" font-family="Cochin,Cochin" font-size="40.0" fill="#515151" transform="matrix(1.00, 0.00, -0.00, -1.00, 480.8, 267.0)">e</text><text xml:space="preserve" font-family="Cochin,Cochin" font-size="40.0" fill="#515151" transform="matrix(1.00, 0.00, -0.00, -1.00, 498.5, 267.0)">m</text><text xml:space="preserve" font-family="Cochin,Cochin" font-size="40.0" fill="#515151" transform="matrix(1.00, 0.00, -0.00, -1.00, 529.6, 267.0)">e</text><text xml:space="preserve" font-family="Cochin,Cochin" font-size="40.0" fill="#515151" transform="matrix(1.00, 0.00, -0.00, -1.00, 547.4, 267.0)">n</text><text xml:space="preserve" font-family="Cochin,Cochin" font-size="40.0" fill="#515151" transform="matrix(1.00, 0.00, -0.00, -1.00, 568.9, 267.0)">t</text></g></g></g></g></svg>