<?xml version="1.0" encoding="UTF-8" standalone="no"?><svg xmlns="http://www.w3.org/2000/svg" xmlns:xlink="http://www.w3.org/1999/xlink" clip-rule="evenodd" stroke-miterlimit="10" viewBox="0 0 1024 768"><desc>SVG generated by Keynote</desc><defs></defs><g transform="matrix(1.00, 0.00, -0.00, -1.00, 0.0, 768.0)"><g><clipPath id="clip0x608000aa8280"><path d="M 0.0 768.0 L 1024.0 768.0 L 1024.0 0.0 L 0.0 0.0 Z M 0.0 768.0 "></path></clipPath><g clip-path="url(#clip0x608000aa8280)"><image xlink:href="../../16B8362E-6469-47BC-976D-7D236EA9E3CB/assets/D5FCF16AA1E44D27BB32344CD7759940.jpeg" width="2048.00" height="1536.00" transform="matrix(0.50, 0.00, -0.00, -0.50, 0.0, 768.0)"></image></g></g><g opacity="0.90"><image xlink:href="../../BFDB126B-3D6F-4F21-A68D-F8A22203E4B3/assets/CCF290F4AD15E1546E33DD754056F24F.png" width="177.00" height="56.00" transform="matrix(1.00, 0.00, -0.00, -1.00, 425.0, 676.0)"></image><g><clipPath id="clip0x600000ab15e0"><path d="M 62.0 577.0 L 962.0 577.0 L 962.0 727.0 L 62.0 727.0 Z M 62.0 577.0 "></path></clipPath><g clip-path="url(#clip0x600000ab15e0)"><text xml:space="preserve" font-family="Cochin,Cochin" font-size="74.0" fill="#515151" transform="matrix(1.00, 0.00, -0.00, -1.00, 425.0, 627.5)">X</text><text xml:space="preserve" font-family="Cochin,Cochin" font-size="74.0" fill="#515151" transform="matrix(1.00, 0.00, -0.00, -1.00, 479.8, 627.5)">N</text><text xml:space="preserve" font-family="Cochin,Cochin" font-size="74.0" fill="#515151" transform="matrix(1.00, 0.00, -0.00, -1.00, 540.1, 627.5)">U</text></g></g></g><g opacity="0.90"><g><clipPath id="clip0x600000ab19a0"><path d="M 62.0 98.0 L 962.0 98.0 L 962.0 548.0 L 62.0 548.0 Z M 62.0 98.0 "></path></clipPath><g clip-path="url(#clip0x600000ab19a0)"><text xml:space="preserve" font-family="Cochin,Cochin" font-size="30.0" fill="#515050" transform="matrix(1.00, 0.00, -0.00, -1.00, 66.0, 399.0)">•</text><text xml:space="preserve" font-family="Cochin,Cochin" font-size="40.0" fill="#515151" transform="matrix(1.00, 0.00, -0.00, -1.00, 100.0, 396.0)">M</text><text xml:space="preserve" font-family="Cochin,Cochin" font-size="40.0" fill="#515151" transform="matrix(1.00, 0.00, -0.00, -1.00, 138.5, 396.0)">a</text><text xml:space="preserve" font-family="Cochin,Cochin" font-size="40.0" fill="#515151" transform="matrix(1.00, 0.00, -0.00, -1.00, 157.0, 396.0)">c</text><text xml:space="preserve" font-family="Cochin,Cochin" font-size="40.0" fill="#515151" transform="matrix(1.00, 0.00, -0.00, -1.00, 174.8, 396.0)">h</text><text xml:space="preserve" font-family="Cochin,Cochin" font-size="30.0" fill="#515050" transform="matrix(1.00, 0.00, -0.00, -1.00, 66.0, 313.0)">•</text><text xml:space="preserve" font-family="Cochin,Cochin" font-size="40.0" fill="#515151" transform="matrix(1.00, 0.00, -0.00, -1.00, 100.0, 310.0)">B</text><text xml:space="preserve" font-family="Cochin,Cochin" font-size="40.0" fill="#515151" transform="matrix(1.00, 0.00, -0.00, -1.00, 127.4, 310.0)">S</text><text xml:space="preserve" font-family="Cochin,Cochin" font-size="40.0" fill="#515151" transform="matrix(1.00, 0.00, -0.00, -1.00, 151.1, 310.0)">D</text><text xml:space="preserve" font-family="Cochin,Cochin" font-size="30.0" fill="#515050" transform="matrix(1.00, 0.00, -0.00, -1.00, 66.0, 227.0)">•</text><text xml:space="preserve" font-family="Cochin,Cochin" font-size="40.0" fill="#515151" transform="matrix(1.00, 0.00, -0.00, -1.00, 100.0, 224.0)">I</text><text xml:space="preserve" font-family="Cochin,Cochin" font-size="40.0" fill="#515151" transform="matrix(1.00, 0.00, -0.00, -1.00, 115.6, 224.0)">O</text><text xml:space="preserve" font-family="Cochin,Cochin" font-size="40.0" fill="#515151" transform="matrix(1.00, 0.00, -0.00, -1.00, 148.9, 224.0)"> </text><text xml:space="preserve" font-family="Cochin,Cochin" font-size="40.0" fill="#515151" transform="matrix(1.00, 0.00, -0.00, -1.00, 158.9, 224.0)">K</text><text xml:space="preserve" font-family="Cochin,Cochin" font-size="40.0" fill="#515151" transform="matrix(1.00, 0.00, -0.00, -1.00, 188.5, 224.0)">i</text><text xml:space="preserve" font-family="Cochin,Cochin" font-size="40.0" fill="#515151" transform="matrix(1.00, 0.00, -0.00, -1.00, 198.9, 224.0)">t</text></g></g></g></g></svg>