<?xml version="1.0" encoding="UTF-8" standalone="no"?><svg xmlns="http://www.w3.org/2000/svg" xmlns:xlink="http://www.w3.org/1999/xlink" clip-rule="evenodd" stroke-miterlimit="10" viewBox="0 0 1024 768"><desc>SVG generated by Keynote</desc><defs></defs><g transform="matrix(1.00, 0.00, -0.00, -1.00, 0.0, 768.0)"><g><clipPath id="clip0x608000ca3d80"><path d="M 0.0 768.0 L 1024.0 768.0 L 1024.0 0.0 L 0.0 0.0 Z M 0.0 768.0 "></path></clipPath><g clip-path="url(#clip0x608000ca3d80)"><image xlink:href="../../16B8362E-6469-47BC-976D-7D236EA9E3CB/assets/D5FCF16AA1E44D27BB32344CD7759940.jpeg" width="2048.00" height="1536.00" transform="matrix(0.50, 0.00, -0.00, -0.50, 0.0, 768.0)"></image></g></g><g opacity="0.90"><image xlink:href="../../A6C87F12-868A-4858-9AC4-A93508F227D2/assets/045074B116646425EB40BE212ED68495.png" width="556.00" height="75.00" transform="matrix(1.00, 0.00, -0.00, -1.00, 236.0, 678.0)"></image><g><clipPath id="clip0x6080008b1d00"><path d="M 62.0 577.0 L 962.0 577.0 L 962.0 727.0 L 62.0 727.0 Z M 62.0 577.0 "></path></clipPath><g clip-path="url(#clip0x6080008b1d00)"><text xml:space="preserve" font-family="Cochin,Cochin" font-size="74.0" fill="#515151" transform="matrix(1.00, 0.00, -0.00, -1.00, 236.9, 627.5)">M</text><text xml:space="preserve" font-family="Cochin,Cochin" font-size="74.0" fill="#515151" transform="matrix(1.00, 0.00, -0.00, -1.00, 308.2, 627.5)">e</text><text xml:space="preserve" font-family="Cochin,Cochin" font-size="74.0" fill="#515151" transform="matrix(1.00, 0.00, -0.00, -1.00, 341.0, 627.5)">m</text><text xml:space="preserve" font-family="Cochin,Cochin" font-size="74.0" fill="#515151" transform="matrix(1.00, 0.00, -0.00, -1.00, 398.6, 627.5)">o</text><text xml:space="preserve" font-family="Cochin,Cochin" font-size="74.0" fill="#515151" transform="matrix(1.00, 0.00, -0.00, -1.00, 435.6, 627.5)">r</text><text xml:space="preserve" font-family="Cochin,Cochin" font-size="74.0" fill="#515151" transform="matrix(1.00, 0.00, -0.00, -1.00, 464.4, 627.5)">y</text><text xml:space="preserve" font-family="Cochin,Cochin" font-size="74.0" fill="#515151" transform="matrix(1.00, 0.00, -0.00, -1.00, 501.4, 627.5)"> </text><text xml:space="preserve" font-family="Cochin,Cochin" font-size="74.0" fill="#515151" transform="matrix(1.00, 0.00, -0.00, -1.00, 519.9, 627.5)">m</text><text xml:space="preserve" font-family="Cochin,Cochin" font-size="74.0" fill="#515151" transform="matrix(1.00, 0.00, -0.00, -1.00, 577.5, 627.5)">a</text><text xml:space="preserve" font-family="Cochin,Cochin" font-size="74.0" fill="#515151" transform="matrix(1.00, 0.00, -0.00, -1.00, 611.7, 627.5)">p</text><text xml:space="preserve" font-family="Cochin,Cochin" font-size="74.0" fill="#515151" transform="matrix(1.00, 0.00, -0.00, -1.00, 651.5, 627.5)">p</text><text xml:space="preserve" font-family="Cochin,Cochin" font-size="74.0" fill="#515151" transform="matrix(1.00, 0.00, -0.00, -1.00, 691.2, 627.5)">i</text><text xml:space="preserve" font-family="Cochin,Cochin" font-size="74.0" fill="#515151" transform="matrix(1.00, 0.00, -0.00, -1.00, 710.4, 627.5)">n</text><text xml:space="preserve" font-family="Cochin,Cochin" font-size="74.0" fill="#515151" transform="matrix(1.00, 0.00, -0.00, -1.00, 750.1, 627.5)">g</text></g></g></g><g><clipPath id="clip0x608000ca4380"><path d="M 561.0 557.0 L 726.0 557.0 L 726.0 56.0 L 561.0 56.0 Z M 561.4 557.2 "></path></clipPath><g clip-path="url(#clip0x608000ca4380)"><image xlink:href="../../A4EFE627-2017-440A-B182-3A1A7CDCA55F/assets/48CFB352A2BDC79E356246583904F4E2.png" width="1024.00" height="1024.00" transform="matrix(0.50, 0.00, -0.00, -0.50, 561.0, 557.0)"></image></g></g><g><clipPath id="clip0x608000ca43e0"><path d="M 249.0 557.0 L 414.0 557.0 L 414.0 202.0 L 249.0 202.0 Z M 249.4 557.2 "></path></clipPath><g clip-path="url(#clip0x608000ca43e0)"><image xlink:href="../../A4EFE627-2017-440A-B182-3A1A7CDCA55F/assets/48CFB352A2BDC79E356246583904F4E2.png" width="1024.00" height="1024.00" transform="matrix(0.50, 0.00, -0.00, -0.50, 249.0, 557.0)"></image></g></g><g><clipPath id="clip0x6000008b43a0"><path d="M 252.0 182.0 L 411.0 182.0 L 411.0 58.0 L 252.0 58.0 Z M 252.0 181.7 "></path></clipPath><g clip-path="url(#clip0x6000008b43a0)"><image xlink:href="../../A4EFE627-2017-440A-B182-3A1A7CDCA55F/assets/48CFB352A2BDC79E356246583904F4E2.png" width="1024.00" height="1024.00" transform="matrix(0.50, 0.00, -0.00, -0.50, 252.0, 182.0)"></image></g></g><g opacity="0.90"><g><clipPath id="clip0x608000ca4860"><path d="M 750.0 441.0 L 964.0 441.0 L 964.0 547.0 L 750.0 547.0 Z M 750.0 441.0 "></path></clipPath><g clip-path="url(#clip0x608000ca4860)"><text xml:space="preserve" font-family="Cochin,Cochin" font-size="42.0" fill="#515050" transform="matrix(1.00, 0.00, -0.00, -1.00, 766.6, 504.5)">U</text><text xml:space="preserve" font-family="Cochin,Cochin" font-size="42.0" fill="#515050" transform="matrix(1.00, 0.00, -0.00, -1.00, 800.0, 504.5)">s</text><text xml:space="preserve" font-family="Cochin,Cochin" font-size="42.0" fill="#515050" transform="matrix(1.00, 0.00, -0.00, -1.00, 816.4, 504.5)">e</text><text xml:space="preserve" font-family="Cochin,Cochin" font-size="42.0" fill="#515050" transform="matrix(1.00, 0.00, -0.00, -1.00, 835.0, 504.5)">r</text><text xml:space="preserve" font-family="Cochin,Cochin" font-size="42.0" fill="#515050" transform="matrix(1.00, 0.00, -0.00, -1.00, 851.3, 504.5)">s</text><text xml:space="preserve" font-family="Cochin,Cochin" font-size="42.0" fill="#515050" transform="matrix(1.00, 0.00, -0.00, -1.00, 867.7, 504.5)">p</text><text xml:space="preserve" font-family="Cochin,Cochin" font-size="42.0" fill="#515050" transform="matrix(1.00, 0.00, -0.00, -1.00, 890.2, 504.5)">a</text><text xml:space="preserve" font-family="Cochin,Cochin" font-size="42.0" fill="#515050" transform="matrix(1.00, 0.00, -0.00, -1.00, 909.7, 504.5)">c</text><text xml:space="preserve" font-family="Cochin,Cochin" font-size="42.0" fill="#515050" transform="matrix(1.00, 0.00, -0.00, -1.00, 928.3, 504.5)">e</text><text xml:space="preserve" font-family="Cochin,Cochin" font-size="42.0" fill="#515050" transform="matrix(1.00, 0.00, -0.00, -1.00, 947.0, 504.5)"> </text><text xml:space="preserve" font-family="Cochin,Cochin" font-size="42.0" fill="#515050" transform="matrix(1.00, 0.00, -0.00, -1.00, 781.9, 455.5)">+</text><text xml:space="preserve" font-family="Cochin,Cochin" font-size="42.0" fill="#515050" transform="matrix(1.00, 0.00, -0.00, -1.00, 802.9, 455.5)"> </text><text xml:space="preserve" font-family="Cochin,Cochin" font-size="42.0" fill="#515050" transform="matrix(1.00, 0.00, -0.00, -1.00, 813.4, 455.5)">K</text><text xml:space="preserve" font-family="Cochin,Cochin" font-size="42.0" fill="#515050" transform="matrix(1.00, 0.00, -0.00, -1.00, 844.6, 455.5)">e</text><text xml:space="preserve" font-family="Cochin,Cochin" font-size="42.0" fill="#515050" transform="matrix(1.00, 0.00, -0.00, -1.00, 863.2, 455.5)">r</text><text xml:space="preserve" font-family="Cochin,Cochin" font-size="42.0" fill="#515050" transform="matrix(1.00, 0.00, -0.00, -1.00, 879.6, 455.5)">n</text><text xml:space="preserve" font-family="Cochin,Cochin" font-size="42.0" fill="#515050" transform="matrix(1.00, 0.00, -0.00, -1.00, 902.1, 455.5)">e</text><text xml:space="preserve" font-family="Cochin,Cochin" font-size="42.0" fill="#515050" transform="matrix(1.00, 0.00, -0.00, -1.00, 920.8, 455.5)">l</text></g></g></g><g opacity="0.90"><g><clipPath id="clip0x608000ca5160"><path d="M 111.0 91.0 L 231.0 91.0 L 231.0 149.0 L 111.0 149.0 Z M 111.0 91.0 "></path></clipPath><g clip-path="url(#clip0x608000ca5160)"><text xml:space="preserve" font-family="Cochin,Cochin" font-size="42.0" fill="#515050" transform="matrix(1.00, 0.00, -0.00, -1.00, 116.2, 106.1)">k</text><text xml:space="preserve" font-family="Cochin,Cochin" font-size="42.0" fill="#515050" transform="matrix(1.00, 0.00, -0.00, -1.00, 138.7, 106.1)">e</text><text xml:space="preserve" font-family="Cochin,Cochin" font-size="42.0" fill="#515050" transform="matrix(1.00, 0.00, -0.00, -1.00, 157.4, 106.1)">r</text><text xml:space="preserve" font-family="Cochin,Cochin" font-size="42.0" fill="#515050" transform="matrix(1.00, 0.00, -0.00, -1.00, 173.7, 106.1)">n</text><text xml:space="preserve" font-family="Cochin,Cochin" font-size="42.0" fill="#515050" transform="matrix(1.00, 0.00, -0.00, -1.00, 196.3, 106.1)">e</text><text xml:space="preserve" font-family="Cochin,Cochin" font-size="42.0" fill="#515050" transform="matrix(1.00, 0.00, -0.00, -1.00, 214.9, 106.1)">l</text></g></g></g><g opacity="0.90"><g><clipPath id="clip0x608000ca55e0"><path d="M 65.0 355.0 L 245.0 355.0 L 245.0 413.0 L 65.0 413.0 Z M 65.0 355.0 "></path></clipPath><g clip-path="url(#clip0x608000ca55e0)"><text xml:space="preserve" font-family="Cochin,Cochin" font-size="42.0" fill="#515050" transform="matrix(1.00, 0.00, -0.00, -1.00, 70.2, 370.0)">u</text><text xml:space="preserve" font-family="Cochin,Cochin" font-size="42.0" fill="#515050" transform="matrix(1.00, 0.00, -0.00, -1.00, 92.8, 370.0)">s</text><text xml:space="preserve" font-family="Cochin,Cochin" font-size="42.0" fill="#515050" transform="matrix(1.00, 0.00, -0.00, -1.00, 109.1, 370.0)">e</text><text xml:space="preserve" font-family="Cochin,Cochin" font-size="42.0" fill="#515050" transform="matrix(1.00, 0.00, -0.00, -1.00, 127.8, 370.0)">r</text><text xml:space="preserve" font-family="Cochin,Cochin" font-size="42.0" fill="#515050" transform="matrix(1.00, 0.00, -0.00, -1.00, 144.1, 370.0)">s</text><text xml:space="preserve" font-family="Cochin,Cochin" font-size="42.0" fill="#515050" transform="matrix(1.00, 0.00, -0.00, -1.00, 160.5, 370.0)">p</text><text xml:space="preserve" font-family="Cochin,Cochin" font-size="42.0" fill="#515050" transform="matrix(1.00, 0.00, -0.00, -1.00, 183.0, 370.0)">a</text><text xml:space="preserve" font-family="Cochin,Cochin" font-size="42.0" fill="#515050" transform="matrix(1.00, 0.00, -0.00, -1.00, 202.5, 370.0)">c</text><text xml:space="preserve" font-family="Cochin,Cochin" font-size="42.0" fill="#515050" transform="matrix(1.00, 0.00, -0.00, -1.00, 221.1, 370.0)">e</text></g></g></g></g></svg>