<?xml version="1.0" encoding="UTF-8" standalone="no"?><svg xmlns="http://www.w3.org/2000/svg" xmlns:xlink="http://www.w3.org/1999/xlink" clip-rule="evenodd" stroke-miterlimit="10" viewBox="0 0 1024 768"><desc>SVG generated by Keynote</desc><defs></defs><g transform="matrix(1.00, 0.00, -0.00, -1.00, 0.0, 768.0)"><g><clipPath id="clip0x600000ca8dc0"><path d="M 0.0 768.0 L 1024.0 768.0 L 1024.0 0.0 L 0.0 0.0 Z M 0.0 768.0 "></path></clipPath><g clip-path="url(#clip0x600000ca8dc0)"><image xlink:href="../../16B8362E-6469-47BC-976D-7D236EA9E3CB/assets/D5FCF16AA1E44D27BB32344CD7759940.jpeg" width="2048.00" height="1536.00" transform="matrix(0.50, 0.00, -0.00, -0.50, 0.0, 768.0)"></image></g></g><g opacity="0.90"><image xlink:href="0BAD2EB2B9E6022CB23DFCC5CF279171.png" width="274.00" height="61.00" transform="matrix(1.00, 0.00, -0.00, -1.00, 378.0, 681.0)"></image><g><clipPath id="clip0x608000ca6960"><path d="M 62.0 577.0 L 962.0 577.0 L 962.0 727.0 L 62.0 727.0 Z M 62.0 577.0 "></path></clipPath><g clip-path="url(#clip0x608000ca6960)"><text xml:space="preserve" font-family="Cochin,Cochin" font-size="74.0" fill="#515151" transform="matrix(1.00, 0.00, -0.00, -1.00, 377.4, 627.5)">3</text><text xml:space="preserve" font-family="Cochin,Cochin" font-size="74.0" fill="#515151" transform="matrix(1.00, 0.00, -0.00, -1.00, 414.4, 627.5)">2</text><text xml:space="preserve" font-family="Cochin,Cochin" font-size="74.0" fill="#515151" transform="matrix(1.00, 0.00, -0.00, -1.00, 451.4, 627.5)">/</text><text xml:space="preserve" font-family="Cochin,Cochin" font-size="74.0" fill="#515151" transform="matrix(1.00, 0.00, -0.00, -1.00, 471.9, 627.5)">6</text><text xml:space="preserve" font-family="Cochin,Cochin" font-size="74.0" fill="#515151" transform="matrix(1.00, 0.00, -0.00, -1.00, 508.9, 627.5)">4</text><text xml:space="preserve" font-family="Cochin,Cochin" font-size="74.0" fill="#515151" transform="matrix(1.00, 0.00, -0.00, -1.00, 545.9, 627.5)"> </text><text xml:space="preserve" font-family="Cochin,Cochin" font-size="74.0" fill="#515151" transform="matrix(1.00, 0.00, -0.00, -1.00, 564.4, 627.5)">b</text><text xml:space="preserve" font-family="Cochin,Cochin" font-size="74.0" fill="#515151" transform="matrix(1.00, 0.00, -0.00, -1.00, 604.2, 627.5)">i</text><text xml:space="preserve" font-family="Cochin,Cochin" font-size="74.0" fill="#515151" transform="matrix(1.00, 0.00, -0.00, -1.00, 623.3, 627.5)">t</text></g></g></g><g><clipPath id="clip0x600000ca90c0"><path d="M 195.0 547.0 L 456.0 547.0 L 456.0 447.0 L 195.0 447.0 Z M 195.3 546.7 "></path></clipPath><g clip-path="url(#clip0x600000ca90c0)"><image xlink:href="../../A4EFE627-2017-440A-B182-3A1A7CDCA55F/assets/48CFB352A2BDC79E356246583904F4E2.png" width="1024.00" height="1024.00" transform="matrix(0.50, 0.00, -0.00, -0.50, 195.0, 547.0)"></image></g></g><g><clipPath id="clip0x608000ca6d20"><path d="M 187.8 446.7 L 463.5 446.7 L 463.5 546.7 L 187.8 546.7 Z M 187.8 446.7 "></path></clipPath><g clip-path="url(#clip0x608000ca6d20)"><text xml:space="preserve" font-family="Cochin,Cochin" font-size="40.0" fill="#FEFFFF" transform="matrix(1.00, 0.00, -0.00, -1.00, 242.7, 483.7)">3</text><text xml:space="preserve" font-family="Cochin,Cochin" font-size="40.0" fill="#FEFFFF" transform="matrix(1.00, 0.00, -0.00, -1.00, 262.7, 483.7)">2</text><text xml:space="preserve" font-family="Cochin,Cochin" font-size="40.0" fill="#FEFFFF" transform="matrix(1.00, 0.00, -0.00, -1.00, 282.7, 483.7)"> </text><text xml:space="preserve" font-family="Cochin,Cochin" font-size="40.0" fill="#FEFFFF" transform="matrix(1.00, 0.00, -0.00, -1.00, 292.7, 483.7)">b</text><text xml:space="preserve" font-family="Cochin,Cochin" font-size="40.0" fill="#FEFFFF" transform="matrix(1.00, 0.00, -0.00, -1.00, 314.2, 483.7)">i</text><text xml:space="preserve" font-family="Cochin,Cochin" font-size="40.0" fill="#FEFFFF" transform="matrix(1.00, 0.00, -0.00, -1.00, 324.5, 483.7)">t</text><text xml:space="preserve" font-family="Cochin,Cochin" font-size="40.0" fill="#FEFFFF" transform="matrix(1.00, 0.00, -0.00, -1.00, 337.1, 483.7)"> </text><text xml:space="preserve" font-family="Cochin,Cochin" font-size="40.0" fill="#FEFFFF" transform="matrix(1.00, 0.00, -0.00, -1.00, 347.1, 483.7)">a</text><text xml:space="preserve" font-family="Cochin,Cochin" font-size="40.0" fill="#FEFFFF" transform="matrix(1.00, 0.00, -0.00, -1.00, 365.6, 483.7)">p</text><text xml:space="preserve" font-family="Cochin,Cochin" font-size="40.0" fill="#FEFFFF" transform="matrix(1.00, 0.00, -0.00, -1.00, 387.1, 483.7)">p</text></g></g><g><clipPath id="clip0x608000ca72c0"><path d="M 541.0 547.0 L 802.0 547.0 L 802.0 447.0 L 541.0 447.0 Z M 541.3 546.7 "></path></clipPath><g clip-path="url(#clip0x608000ca72c0)"><image xlink:href="../../A4EFE627-2017-440A-B182-3A1A7CDCA55F/assets/48CFB352A2BDC79E356246583904F4E2.png" width="1024.00" height="1024.00" transform="matrix(0.50, 0.00, -0.00, -0.50, 541.0, 547.0)"></image></g></g><g><clipPath id="clip0x600000ca98a0"><path d="M 533.8 446.7 L 809.5 446.7 L 809.5 546.7 L 533.8 546.7 Z M 533.8 446.7 "></path></clipPath><g clip-path="url(#clip0x600000ca98a0)"><text xml:space="preserve" font-family="Cochin,Cochin" font-size="40.0" fill="#FEFFFF" transform="matrix(1.00, 0.00, -0.00, -1.00, 588.7, 483.7)">6</text><text xml:space="preserve" font-family="Cochin,Cochin" font-size="40.0" fill="#FEFFFF" transform="matrix(1.00, 0.00, -0.00, -1.00, 608.7, 483.7)">4</text><text xml:space="preserve" font-family="Cochin,Cochin" font-size="40.0" fill="#FEFFFF" transform="matrix(1.00, 0.00, -0.00, -1.00, 628.7, 483.7)"> </text><text xml:space="preserve" font-family="Cochin,Cochin" font-size="40.0" fill="#FEFFFF" transform="matrix(1.00, 0.00, -0.00, -1.00, 638.7, 483.7)">b</text><text xml:space="preserve" font-family="Cochin,Cochin" font-size="40.0" fill="#FEFFFF" transform="matrix(1.00, 0.00, -0.00, -1.00, 660.2, 483.7)">i</text><text xml:space="preserve" font-family="Cochin,Cochin" font-size="40.0" fill="#FEFFFF" transform="matrix(1.00, 0.00, -0.00, -1.00, 670.5, 483.7)">t</text><text xml:space="preserve" font-family="Cochin,Cochin" font-size="40.0" fill="#FEFFFF" transform="matrix(1.00, 0.00, -0.00, -1.00, 683.1, 483.7)"> </text><text xml:space="preserve" font-family="Cochin,Cochin" font-size="40.0" fill="#FEFFFF" transform="matrix(1.00, 0.00, -0.00, -1.00, 693.1, 483.7)">a</text><text xml:space="preserve" font-family="Cochin,Cochin" font-size="40.0" fill="#FEFFFF" transform="matrix(1.00, 0.00, -0.00, -1.00, 711.6, 483.7)">p</text><text xml:space="preserve" font-family="Cochin,Cochin" font-size="40.0" fill="#FEFFFF" transform="matrix(1.00, 0.00, -0.00, -1.00, 733.1, 483.7)">p</text></g></g><g><clipPath id="clip0x600000caa1a0"><path d="M 209.0 225.0 L 469.0 225.0 L 469.0 125.0 L 209.0 125.0 Z M 208.7 224.7 "></path></clipPath><g clip-path="url(#clip0x600000caa1a0)"><image xlink:href="../../A4EFE627-2017-440A-B182-3A1A7CDCA55F/assets/48CFB352A2BDC79E356246583904F4E2.png" width="1024.00" height="1024.00" transform="matrix(0.50, 0.00, -0.00, -0.50, 209.0, 225.0)"></image></g></g><g><clipPath id="clip0x600000caa200"><path d="M 201.2 124.7 L 476.8 124.7 L 476.8 224.7 L 201.2 224.7 Z M 201.2 124.7 "></path></clipPath><g clip-path="url(#clip0x600000caa200)"><text xml:space="preserve" font-family="Cochin,Cochin" font-size="40.0" fill="#FEFFFF" transform="matrix(1.00, 0.00, -0.00, -1.00, 234.6, 161.7)">3</text><text xml:space="preserve" font-family="Cochin,Cochin" font-size="40.0" fill="#FEFFFF" transform="matrix(1.00, 0.00, -0.00, -1.00, 254.6, 161.7)">2</text><text xml:space="preserve" font-family="Cochin,Cochin" font-size="40.0" fill="#FEFFFF" transform="matrix(1.00, 0.00, -0.00, -1.00, 274.6, 161.7)"> </text><text xml:space="preserve" font-family="Cochin,Cochin" font-size="40.0" fill="#FEFFFF" transform="matrix(1.00, 0.00, -0.00, -1.00, 284.6, 161.7)">b</text><text xml:space="preserve" font-family="Cochin,Cochin" font-size="40.0" fill="#FEFFFF" transform="matrix(1.00, 0.00, -0.00, -1.00, 306.1, 161.7)">i</text><text xml:space="preserve" font-family="Cochin,Cochin" font-size="40.0" fill="#FEFFFF" transform="matrix(1.00, 0.00, -0.00, -1.00, 316.4, 161.7)">t</text><text xml:space="preserve" font-family="Cochin,Cochin" font-size="40.0" fill="#FEFFFF" transform="matrix(1.00, 0.00, -0.00, -1.00, 329.0, 161.7)"> </text><text xml:space="preserve" font-family="Cochin,Cochin" font-size="40.0" fill="#FEFFFF" transform="matrix(1.00, 0.00, -0.00, -1.00, 339.0, 161.7)">k</text><text xml:space="preserve" font-family="Cochin,Cochin" font-size="40.0" fill="#FEFFFF" transform="matrix(1.00, 0.00, -0.00, -1.00, 360.5, 161.7)">e</text><text xml:space="preserve" font-family="Cochin,Cochin" font-size="40.0" fill="#FEFFFF" transform="matrix(1.00, 0.00, -0.00, -1.00, 378.3, 161.7)">r</text><text xml:space="preserve" font-family="Cochin,Cochin" font-size="40.0" fill="#FEFFFF" transform="matrix(1.00, 0.00, -0.00, -1.00, 393.8, 161.7)">n</text><text xml:space="preserve" font-family="Cochin,Cochin" font-size="40.0" fill="#FEFFFF" transform="matrix(1.00, 0.00, -0.00, -1.00, 415.3, 161.7)">e</text><text xml:space="preserve" font-family="Cochin,Cochin" font-size="40.0" fill="#FEFFFF" transform="matrix(1.00, 0.00, -0.00, -1.00, 433.1, 161.7)">l</text></g></g><g><clipPath id="clip0x600000caaaa0"><path d="M 555.0 225.0 L 815.0 225.0 L 815.0 125.0 L 555.0 125.0 Z M 554.7 224.7 "></path></clipPath><g clip-path="url(#clip0x600000caaaa0)"><image xlink:href="../../A4EFE627-2017-440A-B182-3A1A7CDCA55F/assets/48CFB352A2BDC79E356246583904F4E2.png" width="1024.00" height="1024.00" transform="matrix(0.50, 0.00, -0.00, -0.50, 555.0, 225.0)"></image></g></g><g><clipPath id="clip0x608000ca7320"><path d="M 547.2 124.7 L 822.8 124.7 L 822.8 224.7 L 547.2 224.7 Z M 547.2 124.7 "></path></clipPath><g clip-path="url(#clip0x608000ca7320)"><text xml:space="preserve" font-family="Cochin,Cochin" font-size="40.0" fill="#FEFFFF" transform="matrix(1.00, 0.00, -0.00, -1.00, 580.6, 161.7)">6</text><text xml:space="preserve" font-family="Cochin,Cochin" font-size="40.0" fill="#FEFFFF" transform="matrix(1.00, 0.00, -0.00, -1.00, 600.6, 161.7)">4</text><text xml:space="preserve" font-family="Cochin,Cochin" font-size="40.0" fill="#FEFFFF" transform="matrix(1.00, 0.00, -0.00, -1.00, 620.6, 161.7)"> </text><text xml:space="preserve" font-family="Cochin,Cochin" font-size="40.0" fill="#FEFFFF" transform="matrix(1.00, 0.00, -0.00, -1.00, 630.6, 161.7)">b</text><text xml:space="preserve" font-family="Cochin,Cochin" font-size="40.0" fill="#FEFFFF" transform="matrix(1.00, 0.00, -0.00, -1.00, 652.1, 161.7)">i</text><text xml:space="preserve" font-family="Cochin,Cochin" font-size="40.0" fill="#FEFFFF" transform="matrix(1.00, 0.00, -0.00, -1.00, 662.4, 161.7)">t</text><text xml:space="preserve" font-family="Cochin,Cochin" font-size="40.0" fill="#FEFFFF" transform="matrix(1.00, 0.00, -0.00, -1.00, 675.0, 161.7)"> </text><text xml:space="preserve" font-family="Cochin,Cochin" font-size="40.0" fill="#FEFFFF" transform="matrix(1.00, 0.00, -0.00, -1.00, 685.0, 161.7)">k</text><text xml:space="preserve" font-family="Cochin,Cochin" font-size="40.0" fill="#FEFFFF" transform="matrix(1.00, 0.00, -0.00, -1.00, 706.5, 161.7)">e</text><text xml:space="preserve" font-family="Cochin,Cochin" font-size="40.0" fill="#FEFFFF" transform="matrix(1.00, 0.00, -0.00, -1.00, 724.3, 161.7)">r</text><text xml:space="preserve" font-family="Cochin,Cochin" font-size="40.0" fill="#FEFFFF" transform="matrix(1.00, 0.00, -0.00, -1.00, 739.8, 161.7)">n</text><text xml:space="preserve" font-family="Cochin,Cochin" font-size="40.0" fill="#FEFFFF" transform="matrix(1.00, 0.00, -0.00, -1.00, 761.3, 161.7)">e</text><text xml:space="preserve" font-family="Cochin,Cochin" font-size="40.0" fill="#FEFFFF" transform="matrix(1.00, 0.00, -0.00, -1.00, 779.1, 161.7)">l</text></g></g><path d="M 0.3 0.3 L 193.6 0.3 L 194.3 0.3 " fill="none" stroke="#3C3E3F" stroke-width="2.00" transform="matrix(0.00, -1.00, -1.00, 0.00, 676.3, 437.3)"></path><path d="M 671.2 244.0 L 676.0 234.4 L 680.8 244.0 Z M 671.2 244.0 " fill="#3C3E3F"></path><path d="M -0.1 0.5 L 200.7 0.5 L 201.9 0.5 " fill="none" stroke="#3C3E3F" stroke-width="2.00" transform="matrix(0.00, -1.00, -1.00, 0.00, 336.5, 440.9)"></path><path d="M 331.2 240.0 L 336.0 230.4 L 340.8 240.0 Z M 331.2 240.0 " fill="#3C3E3F"></path><path d="M 0.0 0.0 L 369.1 0.0 L 370.1 0.0 " fill="none" stroke="#3C3E3F" stroke-width="2.00" transform="matrix(0.85, -0.52, -0.52, -0.85, 345.1, 434.0)"></path><path d="M 657.6 237.4 L 668.2 236.5 L 662.6 245.6 Z M 657.6 237.4 " fill="#3C3E3F"></path><path d="M 0.0 0.0 L 369.1 0.0 L 370.1 0.0 " fill="none" stroke="#3C3E3F" stroke-width="2.00" transform="matrix(-0.85, -0.52, -0.52, 0.85, 667.7, 434.0)"></path><path d="M 350.2 245.6 L 344.5 236.5 L 355.2 237.4 Z M 350.2 245.6 " fill="#3C3E3F"></path></g></svg>