<?xml version="1.0" encoding="UTF-8" standalone="no"?><svg xmlns="http://www.w3.org/2000/svg" xmlns:xlink="http://www.w3.org/1999/xlink" clip-rule="evenodd" stroke-miterlimit="10" viewBox="0 0 1024 768"><desc>SVG generated by Keynote</desc><defs></defs><g transform="matrix(1.00, 0.00, -0.00, -1.00, 0.0, 768.0)"><g><clipPath id="clip0x600000aae040"><path d="M 0.0 768.0 L 1024.0 768.0 L 1024.0 0.0 L 0.0 0.0 Z M 0.0 768.0 "></path></clipPath><g clip-path="url(#clip0x600000aae040)"><image xlink:href="../../16B8362E-6469-47BC-976D-7D236EA9E3CB/assets/D5FCF16AA1E44D27BB32344CD7759940.jpeg" width="2048.00" height="1536.00" transform="matrix(0.50, 0.00, -0.00, -0.50, 0.0, 768.0)"></image></g></g><g opacity="0.90"><image xlink:href="67E81896810893E27106741B36549838.png" width="266.00" height="58.00" transform="matrix(1.00, 0.00, -0.00, -1.00, 380.0, 678.0)"></image><g><clipPath id="clip0x608000aa2f40"><path d="M 62.0 577.0 L 962.0 577.0 L 962.0 727.0 L 62.0 727.0 Z M 62.0 577.0 "></path></clipPath><g clip-path="url(#clip0x608000aa2f40)"><text xml:space="preserve" font-family="Cochin,Cochin" font-size="74.0" fill="#515151" transform="matrix(1.00, 0.00, -0.00, -1.00, 380.8, 627.5)">M</text><text xml:space="preserve" font-family="Cochin,Cochin" font-size="74.0" fill="#515151" transform="matrix(1.00, 0.00, -0.00, -1.00, 452.1, 627.5)">a</text><text xml:space="preserve" font-family="Cochin,Cochin" font-size="74.0" fill="#515151" transform="matrix(1.00, 0.00, -0.00, -1.00, 486.3, 627.5)">c</text><text xml:space="preserve" font-family="Cochin,Cochin" font-size="74.0" fill="#515151" transform="matrix(1.00, 0.00, -0.00, -1.00, 519.2, 627.5)"> </text><text xml:space="preserve" font-family="Cochin,Cochin" font-size="74.0" fill="#515151" transform="matrix(1.00, 0.00, -0.00, -1.00, 537.7, 627.5)">O</text><text xml:space="preserve" font-family="Cochin,Cochin" font-size="74.0" fill="#515151" transform="matrix(1.00, 0.00, -0.00, -1.00, 599.3, 627.5)">S</text></g></g></g><image xlink:href="6A7D7BC1FC171C5F7F8BCC38A7A1BA64.png" width="640.00" height="480.00" transform="matrix(1.00, 0.00, -0.00, -1.00, 192.0, 555.0)"></image></g></svg>