<?xml version="1.0" encoding="UTF-8" standalone="no"?><svg xmlns="http://www.w3.org/2000/svg" xmlns:xlink="http://www.w3.org/1999/xlink" clip-rule="evenodd" stroke-miterlimit="10" viewBox="0 0 1024 768"><desc>SVG generated by Keynote</desc><defs></defs><g transform="matrix(1.00, 0.00, -0.00, -1.00, 0.0, 768.0)"><g><clipPath id="clip0x600000aad9e0"><path d="M 0.0 768.0 L 1024.0 768.0 L 1024.0 0.0 L 0.0 0.0 Z M 0.0 768.0 "></path></clipPath><g clip-path="url(#clip0x600000aad9e0)"><image xlink:href="../../16B8362E-6469-47BC-976D-7D236EA9E3CB/assets/D5FCF16AA1E44D27BB32344CD7759940.jpeg" width="2048.00" height="1536.00" transform="matrix(0.50, 0.00, -0.00, -0.50, 0.0, 768.0)"></image></g></g><g opacity="0.90"><image xlink:href="../../7222C258-22A1-4FC5-8328-4A5D141D3301/assets/1B938ABC4CD4EE2E8B967E3379CD9022.png" width="183.00" height="61.00" transform="matrix(1.00, 0.00, -0.00, -1.00, 422.0, 681.0)"></image><g><clipPath id="clip0x608000aa2700"><path d="M 62.0 577.0 L 962.0 577.0 L 962.0 727.0 L 62.0 727.0 Z M 62.0 577.0 "></path></clipPath><g clip-path="url(#clip0x608000aa2700)"><text xml:space="preserve" font-family="Cochin,Cochin" font-size="74.0" fill="#515151" transform="matrix(1.00, 0.00, -0.00, -1.00, 422.9, 627.5)">M</text><text xml:space="preserve" font-family="Cochin,Cochin" font-size="74.0" fill="#515151" transform="matrix(1.00, 0.00, -0.00, -1.00, 494.2, 627.5)">a</text><text xml:space="preserve" font-family="Cochin,Cochin" font-size="74.0" fill="#515151" transform="matrix(1.00, 0.00, -0.00, -1.00, 528.5, 627.5)">c</text><text xml:space="preserve" font-family="Cochin,Cochin" font-size="74.0" fill="#515151" transform="matrix(1.00, 0.00, -0.00, -1.00, 561.3, 627.5)">h</text></g></g></g><image xlink:href="../../7222C258-22A1-4FC5-8328-4A5D141D3301/assets/17C2DCB744B8AF47626EDAF8CF346CFA.png" width="652.00" height="416.00" transform="matrix(1.00, 0.00, -0.00, -1.00, 186.0, 531.0)"></image></g></svg>