<?xml version="1.0" encoding="UTF-8" standalone="no"?><svg xmlns="http://www.w3.org/2000/svg" xmlns:xlink="http://www.w3.org/1999/xlink" clip-rule="evenodd" stroke-miterlimit="10" viewBox="0 0 1024 768"><desc>SVG generated by Keynote</desc><defs></defs><g transform="matrix(1.00, 0.00, -0.00, -1.00, 0.0, 768.0)"><g><clipPath id="clip0x600000abc1a0"><path d="M 0.0 768.0 L 1024.0 768.0 L 1024.0 0.0 L 0.0 0.0 Z M 0.0 768.0 "></path></clipPath><g clip-path="url(#clip0x600000abc1a0)"><image xlink:href="../../16B8362E-6469-47BC-976D-7D236EA9E3CB/assets/D5FCF16AA1E44D27BB32344CD7759940.jpeg" width="2048.00" height="1536.00" transform="matrix(0.50, 0.00, -0.00, -0.50, 0.0, 768.0)"></image></g></g><g opacity="0.90"><image xlink:href="C7A70638464BB9A61C588F6D3DF60F24.png" width="268.00" height="61.00" transform="matrix(1.00, 0.00, -0.00, -1.00, 379.0, 681.0)"></image><g><clipPath id="clip0x608000ab1d00"><path d="M 62.0 577.0 L 962.0 577.0 L 962.0 727.0 L 62.0 727.0 Z M 62.0 577.0 "></path></clipPath><g clip-path="url(#clip0x608000ab1d00)"><text xml:space="preserve" font-family="Cochin,Cochin" font-size="74.0" fill="#515151" transform="matrix(1.00, 0.00, -0.00, -1.00, 379.8, 627.5)">M</text><text xml:space="preserve" font-family="Cochin,Cochin" font-size="74.0" fill="#515151" transform="matrix(1.00, 0.00, -0.00, -1.00, 451.1, 627.5)">a</text><text xml:space="preserve" font-family="Cochin,Cochin" font-size="74.0" fill="#515151" transform="matrix(1.00, 0.00, -0.00, -1.00, 485.3, 627.5)">c</text><text xml:space="preserve" font-family="Cochin,Cochin" font-size="74.0" fill="#515151" transform="matrix(1.00, 0.00, -0.00, -1.00, 518.2, 627.5)">h</text><text xml:space="preserve" font-family="Cochin,Cochin" font-size="74.0" fill="#515151" transform="matrix(1.00, 0.00, -0.00, -1.00, 557.9, 627.5)">-</text><text xml:space="preserve" font-family="Cochin,Cochin" font-size="74.0" fill="#515151" transform="matrix(1.00, 0.00, -0.00, -1.00, 582.6, 627.5)">O</text></g></g></g><g opacity="0.90"><g><clipPath id="clip0x600000abc980"><path d="M 62.0 98.0 L 962.0 98.0 L 962.0 548.0 L 62.0 548.0 Z M 62.0 98.0 "></path></clipPath><g clip-path="url(#clip0x600000abc980)"><text xml:space="preserve" font-family="Cochin,Cochin" font-size="30.0" fill="#515050" transform="matrix(1.00, 0.00, -0.00, -1.00, 66.0, 485.0)">•</text><text xml:space="preserve" font-family="Cochin,Cochin" font-size="40.0" fill="#515151" transform="matrix(1.00, 0.00, -0.00, -1.00, 100.0, 482.0)">M</text><text xml:space="preserve" font-family="Cochin,Cochin" font-size="40.0" fill="#515151" transform="matrix(1.00, 0.00, -0.00, -1.00, 138.5, 482.0)">u</text><text xml:space="preserve" font-family="Cochin,Cochin" font-size="40.0" fill="#515151" transform="matrix(1.00, 0.00, -0.00, -1.00, 160.0, 482.0)">l</text><text xml:space="preserve" font-family="Cochin,Cochin" font-size="40.0" fill="#515151" transform="matrix(1.00, 0.00, -0.00, -1.00, 170.4, 482.0)">t</text><text xml:space="preserve" font-family="Cochin,Cochin" font-size="40.0" fill="#515151" transform="matrix(1.00, 0.00, -0.00, -1.00, 183.0, 482.0)">i</text><text xml:space="preserve" font-family="Cochin,Cochin" font-size="40.0" fill="#515151" transform="matrix(1.00, 0.00, -0.00, -1.00, 193.3, 482.0)">-</text><text xml:space="preserve" font-family="Cochin,Cochin" font-size="40.0" fill="#515151" transform="matrix(1.00, 0.00, -0.00, -1.00, 206.6, 482.0)">a</text><text xml:space="preserve" font-family="Cochin,Cochin" font-size="40.0" fill="#515151" transform="matrix(1.00, 0.00, -0.00, -1.00, 225.2, 482.0)">r</text><text xml:space="preserve" font-family="Cochin,Cochin" font-size="40.0" fill="#515151" transform="matrix(1.00, 0.00, -0.00, -1.00, 240.7, 482.0)">c</text><text xml:space="preserve" font-family="Cochin,Cochin" font-size="40.0" fill="#515151" transform="matrix(1.00, 0.00, -0.00, -1.00, 258.5, 482.0)">h</text><text xml:space="preserve" font-family="Cochin,Cochin" font-size="40.0" fill="#515151" transform="matrix(1.00, 0.00, -0.00, -1.00, 280.0, 482.0)">i</text><text xml:space="preserve" font-family="Cochin,Cochin" font-size="40.0" fill="#515151" transform="matrix(1.00, 0.00, -0.00, -1.00, 290.3, 482.0)">t</text><text xml:space="preserve" font-family="Cochin,Cochin" font-size="40.0" fill="#515151" transform="matrix(1.00, 0.00, -0.00, -1.00, 302.9, 482.0)">e</text><text xml:space="preserve" font-family="Cochin,Cochin" font-size="40.0" fill="#515151" transform="matrix(1.00, 0.00, -0.00, -1.00, 320.7, 482.0)">c</text><text xml:space="preserve" font-family="Cochin,Cochin" font-size="40.0" fill="#515151" transform="matrix(1.00, 0.00, -0.00, -1.00, 338.4, 482.0)">t</text><text xml:space="preserve" font-family="Cochin,Cochin" font-size="40.0" fill="#515151" transform="matrix(1.00, 0.00, -0.00, -1.00, 351.0, 482.0)">u</text><text xml:space="preserve" font-family="Cochin,Cochin" font-size="40.0" fill="#515151" transform="matrix(1.00, 0.00, -0.00, -1.00, 372.5, 482.0)">r</text><text xml:space="preserve" font-family="Cochin,Cochin" font-size="40.0" fill="#515151" transform="matrix(1.00, 0.00, -0.00, -1.00, 388.1, 482.0)">e</text><text xml:space="preserve" font-family="Cochin,Cochin" font-size="40.0" fill="#515151" transform="matrix(1.00, 0.00, -0.00, -1.00, 405.8, 482.0)"> </text><text xml:space="preserve" font-family="Cochin,Cochin" font-size="40.0" fill="#515151" transform="matrix(1.00, 0.00, -0.00, -1.00, 415.8, 482.0)">b</text><text xml:space="preserve" font-family="Cochin,Cochin" font-size="40.0" fill="#515151" transform="matrix(1.00, 0.00, -0.00, -1.00, 437.3, 482.0)">i</text><text xml:space="preserve" font-family="Cochin,Cochin" font-size="40.0" fill="#515151" transform="matrix(1.00, 0.00, -0.00, -1.00, 447.7, 482.0)">n</text><text xml:space="preserve" font-family="Cochin,Cochin" font-size="40.0" fill="#515151" transform="matrix(1.00, 0.00, -0.00, -1.00, 469.2, 482.0)">a</text><text xml:space="preserve" font-family="Cochin,Cochin" font-size="40.0" fill="#515151" transform="matrix(1.00, 0.00, -0.00, -1.00, 487.7, 482.0)">r</text><text xml:space="preserve" font-family="Cochin,Cochin" font-size="40.0" fill="#515151" transform="matrix(1.00, 0.00, -0.00, -1.00, 503.2, 482.0)">i</text><text xml:space="preserve" font-family="Cochin,Cochin" font-size="40.0" fill="#515151" transform="matrix(1.00, 0.00, -0.00, -1.00, 513.6, 482.0)">e</text><text xml:space="preserve" font-family="Cochin,Cochin" font-size="40.0" fill="#515151" transform="matrix(1.00, 0.00, -0.00, -1.00, 531.4, 482.0)">s</text><text xml:space="preserve" font-family="Cochin,Cochin" font-size="30.0" fill="#515050" transform="matrix(1.00, 0.00, -0.00, -1.00, 66.0, 399.0)">•</text><text xml:space="preserve" font-family="Cochin,Cochin" font-size="40.0" fill="#515151" transform="matrix(1.00, 0.00, -0.00, -1.00, 100.0, 396.0)">V</text><text xml:space="preserve" font-family="Cochin,Cochin" font-size="40.0" fill="#515151" transform="matrix(1.00, 0.00, -0.00, -1.00, 126.0, 396.0)">e</text><text xml:space="preserve" font-family="Cochin,Cochin" font-size="40.0" fill="#515151" transform="matrix(1.00, 0.00, -0.00, -1.00, 143.7, 396.0)">r</text><text xml:space="preserve" font-family="Cochin,Cochin" font-size="40.0" fill="#515151" transform="matrix(1.00, 0.00, -0.00, -1.00, 159.3, 396.0)">s</text><text xml:space="preserve" font-family="Cochin,Cochin" font-size="40.0" fill="#515151" transform="matrix(1.00, 0.00, -0.00, -1.00, 174.8, 396.0)">i</text><text xml:space="preserve" font-family="Cochin,Cochin" font-size="40.0" fill="#515151" transform="matrix(1.00, 0.00, -0.00, -1.00, 185.2, 396.0)">o</text><text xml:space="preserve" font-family="Cochin,Cochin" font-size="40.0" fill="#515151" transform="matrix(1.00, 0.00, -0.00, -1.00, 205.2, 396.0)">n</text><text xml:space="preserve" font-family="Cochin,Cochin" font-size="40.0" fill="#515151" transform="matrix(1.00, 0.00, -0.00, -1.00, 226.7, 396.0)">e</text><text xml:space="preserve" font-family="Cochin,Cochin" font-size="40.0" fill="#515151" transform="matrix(1.00, 0.00, -0.00, -1.00, 244.4, 396.0)">d</text><text xml:space="preserve" font-family="Cochin,Cochin" font-size="40.0" fill="#515151" transform="matrix(1.00, 0.00, -0.00, -1.00, 265.9, 396.0)"> </text><text xml:space="preserve" font-family="Cochin,Cochin" font-size="40.0" fill="#515151" transform="matrix(1.00, 0.00, -0.00, -1.00, 275.9, 396.0)">d</text><text xml:space="preserve" font-family="Cochin,Cochin" font-size="40.0" fill="#515151" transform="matrix(1.00, 0.00, -0.00, -1.00, 297.4, 396.0)">e</text><text xml:space="preserve" font-family="Cochin,Cochin" font-size="40.0" fill="#515151" transform="matrix(1.00, 0.00, -0.00, -1.00, 315.2, 396.0)">p</text><text xml:space="preserve" font-family="Cochin,Cochin" font-size="40.0" fill="#515151" transform="matrix(1.00, 0.00, -0.00, -1.00, 336.6, 396.0)">e</text><text xml:space="preserve" font-family="Cochin,Cochin" font-size="40.0" fill="#515151" transform="matrix(1.00, 0.00, -0.00, -1.00, 354.4, 396.0)">n</text><text xml:space="preserve" font-family="Cochin,Cochin" font-size="40.0" fill="#515151" transform="matrix(1.00, 0.00, -0.00, -1.00, 375.9, 396.0)">d</text><text xml:space="preserve" font-family="Cochin,Cochin" font-size="40.0" fill="#515151" transform="matrix(1.00, 0.00, -0.00, -1.00, 397.4, 396.0)">e</text><text xml:space="preserve" font-family="Cochin,Cochin" font-size="40.0" fill="#515151" transform="matrix(1.00, 0.00, -0.00, -1.00, 415.1, 396.0)">n</text><text xml:space="preserve" font-family="Cochin,Cochin" font-size="40.0" fill="#515151" transform="matrix(1.00, 0.00, -0.00, -1.00, 436.6, 396.0)">c</text><text xml:space="preserve" font-family="Cochin,Cochin" font-size="40.0" fill="#515151" transform="matrix(1.00, 0.00, -0.00, -1.00, 454.4, 396.0)">i</text><text xml:space="preserve" font-family="Cochin,Cochin" font-size="40.0" fill="#515151" transform="matrix(1.00, 0.00, -0.00, -1.00, 464.7, 396.0)">e</text><text xml:space="preserve" font-family="Cochin,Cochin" font-size="40.0" fill="#515151" transform="matrix(1.00, 0.00, -0.00, -1.00, 482.5, 396.0)">s</text><text xml:space="preserve" font-family="Cochin,Cochin" font-size="30.0" fill="#515050" transform="matrix(1.00, 0.00, -0.00, -1.00, 66.0, 313.0)">•</text><text xml:space="preserve" font-family="Cochin,Cochin" font-size="40.0" fill="#515151" transform="matrix(1.00, 0.00, -0.00, -1.00, 100.0, 310.0)">E</text><text xml:space="preserve" font-family="Cochin,Cochin" font-size="40.0" fill="#515151" transform="matrix(1.00, 0.00, -0.00, -1.00, 127.4, 310.0)">x</text><text xml:space="preserve" font-family="Cochin,Cochin" font-size="40.0" fill="#515151" transform="matrix(1.00, 0.00, -0.00, -1.00, 148.2, 310.0)">t</text><text xml:space="preserve" font-family="Cochin,Cochin" font-size="40.0" fill="#515151" transform="matrix(1.00, 0.00, -0.00, -1.00, 160.8, 310.0)">e</text><text xml:space="preserve" font-family="Cochin,Cochin" font-size="40.0" fill="#515151" transform="matrix(1.00, 0.00, -0.00, -1.00, 178.5, 310.0)">n</text><text xml:space="preserve" font-family="Cochin,Cochin" font-size="40.0" fill="#515151" transform="matrix(1.00, 0.00, -0.00, -1.00, 200.0, 310.0)">s</text><text xml:space="preserve" font-family="Cochin,Cochin" font-size="40.0" fill="#515151" transform="matrix(1.00, 0.00, -0.00, -1.00, 215.6, 310.0)">i</text><text xml:space="preserve" font-family="Cochin,Cochin" font-size="40.0" fill="#515151" transform="matrix(1.00, 0.00, -0.00, -1.00, 225.9, 310.0)">b</text><text xml:space="preserve" font-family="Cochin,Cochin" font-size="40.0" fill="#515151" transform="matrix(1.00, 0.00, -0.00, -1.00, 247.4, 310.0)">i</text><text xml:space="preserve" font-family="Cochin,Cochin" font-size="40.0" fill="#515151" transform="matrix(1.00, 0.00, -0.00, -1.00, 257.8, 310.0)">l</text><text xml:space="preserve" font-family="Cochin,Cochin" font-size="40.0" fill="#515151" transform="matrix(1.00, 0.00, -0.00, -1.00, 268.1, 310.0)">i</text><text xml:space="preserve" font-family="Cochin,Cochin" font-size="40.0" fill="#515151" transform="matrix(1.00, 0.00, -0.00, -1.00, 278.5, 310.0)">t</text><text xml:space="preserve" font-family="Cochin,Cochin" font-size="40.0" fill="#515151" transform="matrix(1.00, 0.00, -0.00, -1.00, 291.1, 310.0)">y</text><text xml:space="preserve" font-family="Cochin,Cochin" font-size="30.0" fill="#515050" transform="matrix(1.00, 0.00, -0.00, -1.00, 66.0, 227.0)">•</text><text xml:space="preserve" font-family="Cochin,Cochin" font-size="40.0" fill="#515151" transform="matrix(1.00, 0.00, -0.00, -1.00, 100.0, 224.0)">P</text><text xml:space="preserve" font-family="Cochin,Cochin" font-size="40.0" fill="#515151" transform="matrix(1.00, 0.00, -0.00, -1.00, 125.2, 224.0)">e</text><text xml:space="preserve" font-family="Cochin,Cochin" font-size="40.0" fill="#515151" transform="matrix(1.00, 0.00, -0.00, -1.00, 143.0, 224.0)">r</text><text xml:space="preserve" font-family="Cochin,Cochin" font-size="40.0" fill="#515151" transform="matrix(1.00, 0.00, -0.00, -1.00, 158.5, 224.0)">f</text><text xml:space="preserve" font-family="Cochin,Cochin" font-size="40.0" fill="#515151" transform="matrix(1.00, 0.00, -0.00, -1.00, 171.1, 224.0)">o</text><text xml:space="preserve" font-family="Cochin,Cochin" font-size="40.0" fill="#515151" transform="matrix(1.00, 0.00, -0.00, -1.00, 191.1, 224.0)">r</text><text xml:space="preserve" font-family="Cochin,Cochin" font-size="40.0" fill="#515151" transform="matrix(1.00, 0.00, -0.00, -1.00, 206.7, 224.0)">m</text><text xml:space="preserve" font-family="Cochin,Cochin" font-size="40.0" fill="#515151" transform="matrix(1.00, 0.00, -0.00, -1.00, 237.8, 224.0)">a</text><text xml:space="preserve" font-family="Cochin,Cochin" font-size="40.0" fill="#515151" transform="matrix(1.00, 0.00, -0.00, -1.00, 256.3, 224.0)">n</text><text xml:space="preserve" font-family="Cochin,Cochin" font-size="40.0" fill="#515151" transform="matrix(1.00, 0.00, -0.00, -1.00, 277.8, 224.0)">c</text><text xml:space="preserve" font-family="Cochin,Cochin" font-size="40.0" fill="#515151" transform="matrix(1.00, 0.00, -0.00, -1.00, 295.6, 224.0)">e</text><text xml:space="preserve" font-family="Cochin,Cochin" font-size="40.0" fill="#515151" transform="matrix(1.00, 0.00, -0.00, -1.00, 313.3, 224.0)"> </text><text xml:space="preserve" font-family="Cochin,Cochin" font-size="30.0" fill="#515050" transform="matrix(1.00, 0.00, -0.00, -1.00, 66.0, 141.0)">•</text><text xml:space="preserve" font-family="Cochin,Cochin" font-size="40.0" fill="#515151" transform="matrix(1.00, 0.00, -0.00, -1.00, 100.0, 138.0)">B</text><text xml:space="preserve" font-family="Cochin,Cochin" font-size="40.0" fill="#515151" transform="matrix(1.00, 0.00, -0.00, -1.00, 127.4, 138.0)">a</text><text xml:space="preserve" font-family="Cochin,Cochin" font-size="40.0" fill="#515151" transform="matrix(1.00, 0.00, -0.00, -1.00, 145.9, 138.0)">s</text><text xml:space="preserve" font-family="Cochin,Cochin" font-size="40.0" fill="#515151" transform="matrix(1.00, 0.00, -0.00, -1.00, 161.5, 138.0)">e</text><text xml:space="preserve" font-family="Cochin,Cochin" font-size="40.0" fill="#515151" transform="matrix(1.00, 0.00, -0.00, -1.00, 179.2, 138.0)">d</text><text xml:space="preserve" font-family="Cochin,Cochin" font-size="40.0" fill="#515151" transform="matrix(1.00, 0.00, -0.00, -1.00, 200.7, 138.0)"> </text><text xml:space="preserve" font-family="Cochin,Cochin" font-size="40.0" fill="#515151" transform="matrix(1.00, 0.00, -0.00, -1.00, 210.7, 138.0)">o</text><text xml:space="preserve" font-family="Cochin,Cochin" font-size="40.0" fill="#515151" transform="matrix(1.00, 0.00, -0.00, -1.00, 230.7, 138.0)">n</text><text xml:space="preserve" font-family="Cochin,Cochin" font-size="40.0" fill="#515151" transform="matrix(1.00, 0.00, -0.00, -1.00, 252.2, 138.0)"> </text><text xml:space="preserve" font-family="Cochin,Cochin" font-size="40.0" fill="#515151" transform="matrix(1.00, 0.00, -0.00, -1.00, 262.2, 138.0)">C</text><text xml:space="preserve" font-family="Cochin,Cochin" font-size="40.0" fill="#515151" transform="matrix(1.00, 0.00, -0.00, -1.00, 290.4, 138.0)">M</text><text xml:space="preserve" font-family="Cochin,Cochin" font-size="40.0" fill="#515151" transform="matrix(1.00, 0.00, -0.00, -1.00, 328.9, 138.0)">U</text><text xml:space="preserve" font-family="Cochin,Cochin" font-size="40.0" fill="#515151" transform="matrix(1.00, 0.00, -0.00, -1.00, 360.7, 138.0)"> </text><text xml:space="preserve" font-family="Cochin,Cochin" font-size="40.0" fill="#515151" transform="matrix(1.00, 0.00, -0.00, -1.00, 370.7, 138.0)">M</text><text xml:space="preserve" font-family="Cochin,Cochin" font-size="40.0" fill="#515151" transform="matrix(1.00, 0.00, -0.00, -1.00, 409.2, 138.0)">a</text><text xml:space="preserve" font-family="Cochin,Cochin" font-size="40.0" fill="#515151" transform="matrix(1.00, 0.00, -0.00, -1.00, 427.8, 138.0)">c</text><text xml:space="preserve" font-family="Cochin,Cochin" font-size="40.0" fill="#515151" transform="matrix(1.00, 0.00, -0.00, -1.00, 445.5, 138.0)">h</text></g></g></g></g></svg>